<svg xmlns="http://www.w3.org/2000/svg" xmlns:xlink="http://www.w3.org/1999/xlink" viewBox="0 0 636.75 636.75"><defs><style>.cls-1{fill:url(#Degradado_sin_nombre_17);}.cls-2{isolation:isolate;}.cls-3{clip-path:url(#clip-path);}.cls-4{fill:url(#Degradado_sin_nombre_17-3);}.cls-5{fill:url(#Degradado_sin_nombre_5);}.cls-6{fill:url(#Degradado_sin_nombre_5-2);}.cls-7{fill:url(#Degradado_sin_nombre_5-3);}.cls-8{fill:url(#Degradado_sin_nombre_5-4);}.cls-9{fill:url(#Degradado_sin_nombre_5-5);}.cls-10{fill:url(#Degradado_sin_nombre_5-6);}.cls-11{fill:url(#Degradado_sin_nombre_5-7);}.cls-12{fill:url(#Degradado_sin_nombre_5-8);}.cls-13,.cls-22{mix-blend-mode:color-dodge;}.cls-14{fill:url(#Degradado_sin_nombre_5-9);}.cls-15{fill:url(#Degradado_sin_nombre_5-10);}.cls-16{fill:url(#Degradado_sin_nombre_5-11);}.cls-17{fill:url(#Degradado_sin_nombre_5-12);}.cls-18{fill:url(#Degradado_sin_nombre_5-13);}.cls-19{fill:url(#Degradado_sin_nombre_5-14);}.cls-20{fill:url(#Degradado_sin_nombre_5-15);}.cls-21{fill:url(#Degradado_sin_nombre_5-16);}.cls-22{fill:url(#Degradado_sin_nombre_5-17);}</style><linearGradient id="Degradado_sin_nombre_17" x1="251.07" x2="251.07" y2="502.14" gradientUnits="userSpaceOnUse"><stop offset="0.37" stop-color="#76e7ae"/><stop offset="1" stop-color="#498264"/></linearGradient><clipPath id="clip-path" transform="translate(64.78 2.9)"><circle class="cls-1" cx="251.07" cy="251.07" r="251.07"/></clipPath><linearGradient id="Degradado_sin_nombre_17-3" x1="318.37" x2="318.37" y2="636.75" xlink:href="#Degradado_sin_nombre_17"/><linearGradient id="Degradado_sin_nombre_5" x1="164.21" y1="175.23" x2="164.21" y2="409.13" gradientUnits="userSpaceOnUse"><stop offset="0" stop-color="#323230"/><stop offset="0.3" stop-color="#282826"/><stop offset="0.81" stop-color="#0c0c0c"/><stop offset="1"/></linearGradient><linearGradient id="Degradado_sin_nombre_5-2" x1="210.12" y1="93.01" x2="210.12" y2="234.87" xlink:href="#Degradado_sin_nombre_5"/><linearGradient id="Degradado_sin_nombre_5-3" x1="361.16" y1="339.43" x2="361.16" y2="383" xlink:href="#Degradado_sin_nombre_5"/><linearGradient id="Degradado_sin_nombre_5-4" x1="140.99" y1="339.48" x2="140.99" y2="383.04" xlink:href="#Degradado_sin_nombre_5"/><linearGradient id="Degradado_sin_nombre_5-5" x1="361.13" y1="119.27" x2="361.13" y2="162.69" xlink:href="#Degradado_sin_nombre_5"/><linearGradient id="Degradado_sin_nombre_5-6" x1="141.02" y1="119.23" x2="141.02" y2="162.64" xlink:href="#Degradado_sin_nombre_5"/><linearGradient id="Degradado_sin_nombre_5-7" x1="337.9" y1="93.18" x2="337.9" y2="324.94" xlink:href="#Degradado_sin_nombre_5"/><linearGradient id="Degradado_sin_nombre_5-8" x1="291.83" y1="266.02" x2="291.83" y2="409.11" xlink:href="#Degradado_sin_nombre_5"/><linearGradient id="Degradado_sin_nombre_5-9" x1="164.2" y1="174.83" x2="164.2" y2="409.52" xlink:href="#Degradado_sin_nombre_5"/><linearGradient id="Degradado_sin_nombre_5-10" x1="210.13" y1="92.62" x2="210.13" y2="235.26" xlink:href="#Degradado_sin_nombre_5"/><linearGradient id="Degradado_sin_nombre_5-11" x1="361.17" y1="339.02" x2="361.17" y2="383.39" xlink:href="#Degradado_sin_nombre_5"/><linearGradient id="Degradado_sin_nombre_5-12" x1="140.99" y1="339.08" x2="140.99" y2="383.44" xlink:href="#Degradado_sin_nombre_5"/><linearGradient id="Degradado_sin_nombre_5-13" x1="361.13" y1="118.87" x2="361.13" y2="163.08" xlink:href="#Degradado_sin_nombre_5"/><linearGradient id="Degradado_sin_nombre_5-14" x1="141.03" y1="118.82" x2="141.03" y2="163.03" xlink:href="#Degradado_sin_nombre_5"/><linearGradient id="Degradado_sin_nombre_5-15" x1="337.9" y1="92.78" x2="337.9" y2="325.32" xlink:href="#Degradado_sin_nombre_5"/><linearGradient id="Degradado_sin_nombre_5-16" x1="291.83" y1="265.62" x2="291.83" y2="409.51" xlink:href="#Degradado_sin_nombre_5"/><linearGradient id="Degradado_sin_nombre_5-17" x1="168.75" y1="209.44" x2="168.75" y2="225.39" xlink:href="#Degradado_sin_nombre_5"/></defs><g class="cls-2"><g id="Layer_2" data-name="Layer 2"><g id="Capa_1" data-name="Capa 1"><circle class="cls-1" cx="315.85" cy="253.97" r="251.07"/><g class="cls-3"><rect class="cls-4" width="636.75" height="636.75"/></g><path class="cls-5" d="M175.06,204.36A26.56,26.56,0,0,0,175,207c.19,12.47-4.67,25.31-13.68,34.12-4.37,4.31-8.72,8.6-13,13a40.25,40.25,0,0,1-32.8,12c-.67-.07-1.36-.1-2-.12-11.64-.27-22.78,8.64-19.93,21.05,2.82,12.23,6.43,26.32,27.49,26a14.34,14.34,0,0,1,2,.34c12.89,1.67,24.86,8.31,33.9,17.54q6.93,7.23,13.63,14.66c8.42,9.5,15,21.25,17.2,33.84a22.84,22.84,0,0,0,.52,2.3c1.78,6.54,5.87,12.38,10.64,17.11,4.47,4.43,10.12,8.45,16.32,9.84,12.44,2.78,20.48-8.51,20.11-19.76-.47-14.36-13-26.4-27.08-28.2l-.5-.06c-12-1.32-22.69-7.89-30.82-16.57-6.38-7-12.59-14.06-19.15-20.84-8.1-8.48-15-19.07-16.37-31a.77.77,0,0,0,0-.15c0-.05,0-.1,0-.15-1.38-11,2.37-21.48,9.93-29.7,5.92-6.27,11.71-12.66,17.9-18.67,8.74-8.56,20.78-13.09,32.82-13.55l.57,0c15.46-.77,29.5-12.91,29.74-28.91a25.57,25.57,0,0,0-27.54-25.86C189.87,176.41,176.45,189.44,175.06,204.36Z" transform="translate(64.78 2.9)"/><path class="cls-6" d="M297.83,175.34a27,27,0,0,0-2.84-.12c-13.05.15-27-4.52-36.23-14.12-4.3-4.46-8.56-9-12.87-13.43a39.49,39.49,0,0,1-10.81-32.62c.09-.65.15-1.31.19-2,.43-7.94-3.77-16.62-11.7-19.18-9-2.91-21.69,1.77-28.37,7.71-3.88,3.46-5.5,8.34-6.9,13.36-1.29,4.6-.53,9-1.93,13.68a71.63,71.63,0,0,1-15.89,27.21q-6.79,7.39-13.75,14.63c-8.93,9.09-20.82,15.71-33.48,17.67-.77.11-1.53.37-2.35.48-17,2.22-24.59,14.35-27.37,26.64a15.22,15.22,0,0,0,3.7,14.28c4.2,4.22,10.31,5.59,16,5.27,13.89-.78,26.21-12.41,28.23-26.27l.06-.48c1.47-11.73,8.31-22.23,16.41-30.54,6.64-6.72,12.9-13.78,19.32-20.7,8.09-8.52,18.63-15.13,30.49-16.46l.16,0,.15,0a36,36,0,0,1,29.66,10.36c6.1,6.18,12,12.51,18.18,18.64a47.11,47.11,0,0,1,13.84,32c0,.17,0,.35,0,.53.62,16,14.92,28,30.47,28.37,14.58.32,28-10.3,26.87-25.65C326,189.67,312.58,176.72,297.83,175.34Z" transform="translate(64.78 2.9)"/><path class="cls-7" d="M341.34,371.3c5-13,16.89-24.84,29.87-29.85,2.48-.95,8.77-3.54,11.13-.8,2.19,2.54-1.86,7.22-3.27,9.07A154.34,154.34,0,0,1,365,365c-4.9,4.89-9.86,9.94-15.34,14.11-1.88,1.42-6.53,5.42-9.08,3.18C337.85,379.94,340.37,373.8,341.34,371.3Z" transform="translate(64.78 2.9)"/><path class="cls-8" d="M123.08,349.72c-1.37-1.79-5.46-6.52-3.28-9,2.38-2.73,8.63-.12,11.13.86,13,5.07,24.8,17,29.87,30,1,2.48,3.5,8.58.78,10.89-2.55,2.16-7.25-1.88-9.08-3.27C147,375,142.06,370,137.16,365.06A155.67,155.67,0,0,1,123.08,349.72Z" transform="translate(64.78 2.9)"/><path class="cls-9" d="M341.3,130.73c-1-2.44-3.47-8.51-.75-10.82,2.57-2.18,7.22,1.82,9.1,3.24,5.47,4.17,10.43,9.21,15.32,14.1s9.93,9.85,14.1,15.33c1.38,1.8,5.46,6.52,3.2,9-2.43,2.65-8.72-.05-11.19-1C358.23,155.37,346.36,143.63,341.3,130.73Z" transform="translate(64.78 2.9)"/><path class="cls-10" d="M123.08,152.58c4.17-5.48,9.2-10.45,14.1-15.35s9.85-9.91,15.32-14.08c1.83-1.39,6.53-5.44,9.09-3.33,2.74,2.24.21,8.26-.74,10.68-5.1,12.92-16.93,24.72-29.79,29.93-2.49,1-8.74,3.73-11.18,1.1C117.62,159.09,121.74,154.33,123.08,152.58Z" transform="translate(64.78 2.9)"/><path class="cls-11" d="M293.79,140.46l.56.06c12.74,1.43,24.23,8.6,32.91,17.8,5.14,5.55,10.2,11.18,15.53,16.56,8.76,9,16.2,20.15,17.79,32.84,0,.06,0,.11,0,.16s0,.35.07.52a36,36,0,0,1-10.9,31.47c-4.31,4.07-8.7,8.06-12.8,12.35-9.4,9.87-22.72,14.82-36.15,14.74h-.67c-16.21.14-30.13,13.3-30.43,29.64-.3,15.48,11.9,29.37,27.89,28.28,15.5-1.07,28.76-15.22,29.84-30.54,0-.21,0-.42,0-.63.61-12.95,5.57-26.44,14.81-35.74,4.3-4.3,8.64-8.56,13.11-12.69a42.58,42.58,0,0,1,32.77-10.62l.49.05c5.74.39,11.89-1,16.14-5.22,3.83-3.79,4.81-9.09,3.8-14.29-3.43-17.57-11.75-24.34-27.67-26.67a8.81,8.81,0,0,1-.92-.21,68.92,68.92,0,0,1-34.78-19.14q-6.47-6.66-12.8-13.47c-8.7-9.52-15.66-21.35-18.38-34-.09-.43-.2-.87-.32-1.31-3.19-11.83-14.65-24.1-26.8-26.76s-20.49,7.9-20.11,19.25C267.3,127,280.07,138.63,293.79,140.46Z" transform="translate(64.78 2.9)"/><path class="cls-12" d="M204.05,324.32a27.24,27.24,0,0,0,2.86.09c13.47-.39,27.27,4.91,36.48,14.88,4.28,4.6,8.47,9.27,12.73,13.89,8.31,9.18,12.49,21.12,10.88,33.47-.09.67-.16,1.36-.19,2-.49,11.46,7.64,22.81,20.21,20,6.32-1.41,14.54-3.81,19-8.36,4.74-4.81,6.23-12.5,7.93-19.11.17-.64.31-1.29.42-1.91,2.22-12.63,8.92-24.63,17.42-34.11q6.72-7.35,13.64-14.51c9-9.13,20.8-15.63,33.61-17.27a19.52,19.52,0,0,1,2.35-.42c16.22-.1,24.55-13.71,27.2-26,2.72-12.55-8.1-21-19.64-21-14.15,0-26.19,11.75-28.15,25.63l-.06.5c-1.5,12-8.27,22.59-16.47,31.18-6.56,6.78-12.81,13.82-19.16,20.8-8,8.64-18.7,15.47-30.64,16.75l-.16,0h-.15a35.74,35.74,0,0,1-29.93-10.72c-6.17-6.44-12.06-13.11-18-19.72a53.38,53.38,0,0,1-13.88-34.25c0-.19,0-.38,0-.57-.63-16.21-14.41-29.14-30.57-29.13-15.2,0-28.11,12-27.08,27.52C175.67,309.24,188.8,323.05,204.05,324.32Z" transform="translate(64.78 2.9)"/><g class="cls-13"><path class="cls-14" d="M219,409.52a17.75,17.75,0,0,1-3.84-.44c-6.92-1.54-12.8-6.26-16.51-9.94-5.42-5.37-9.13-11.35-10.75-17.29a23.88,23.88,0,0,1-.52-2.34c-2.59-14.76-10.73-26.45-17.12-33.65-4.56-5.05-9.15-10-13.61-14.64-9.45-9.65-21.41-15.83-33.67-17.42-.27,0-.54-.1-.8-.16a4,4,0,0,0-1.1-.18c-9.55.16-16.39-2.6-20.91-8.42-4.07-5.24-5.67-12.24-7-17.86a15.86,15.86,0,0,1,3.18-14.06c3.88-4.76,10.45-7.62,17.15-7.47.74,0,1.42.06,2.06.12A39.85,39.85,0,0,0,148,253.91c4.35-4.55,8.93-9.06,13-13,8.69-8.5,13.76-21.15,13.57-33.84,0-.91,0-1.83.11-2.73,1.41-15.09,14.9-28.28,30.09-29.41a26.15,26.15,0,0,1,19.83,7,25.61,25.61,0,0,1,8.13,19.24,28.53,28.53,0,0,1-9.29,20.45,33.34,33.34,0,0,1-20.83,8.85l-.48,0H202c-12.46.47-24.33,5.37-32.56,13.43-4.72,4.58-9.28,9.46-13.69,14.18l-4.2,4.49c-7.66,8.32-11.15,18.76-9.83,29.37l0,.3C143,302.61,148.46,313,158.05,323c4.43,4.58,8.76,9.38,12.95,14,2,2.24,4.12,4.56,6.2,6.82,8.81,9.41,19.67,15.25,30.57,16.46.17,0,.34,0,.51.06a32.39,32.39,0,0,1,18.89,9.5,28.65,28.65,0,0,1,8.53,19.07c.22,6.73-2.5,13.29-7.1,17.1A14.86,14.86,0,0,1,219,409.52Zm-97.89-96.85a5.11,5.11,0,0,1,1.26.2,6.44,6.44,0,0,0,.71.15c12.44,1.61,24.56,7.88,34.13,17.65,4.48,4.67,9.07,9.6,13.64,14.67,6.45,7.28,14.69,19.09,17.3,34a22.94,22.94,0,0,0,.51,2.26c1.58,5.81,5.23,11.67,10.54,16.94,3.64,3.61,9.4,8.23,16.13,9.73a14.45,14.45,0,0,0,12.81-2.9c4.42-3.66,7-10,6.82-16.47a27.92,27.92,0,0,0-8.32-18.54,31.58,31.58,0,0,0-18.42-9.27l-.49-.06c-11.09-1.23-22.12-7.16-31.07-16.7-2.08-2.27-4.18-4.59-6.2-6.84-4.19-4.63-8.52-9.43-12.94-14-9.72-10.16-15.26-20.65-16.48-31.18l0-.3c-1.35-10.85,2.21-21.51,10-30q2.12-2.24,4.21-4.49c4.41-4.72,9-9.61,13.71-14.2,8.37-8.2,20.43-13.18,33.08-13.66h.09l.47,0A32.53,32.53,0,0,0,222.89,221a27.72,27.72,0,0,0,9-19.88,24.83,24.83,0,0,0-7.88-18.65,25.37,25.37,0,0,0-19.23-6.81c-14.82,1.1-28,14-29.37,28.7h0a25.69,25.69,0,0,0-.1,2.63,47.85,47.85,0,0,1-13.8,34.42c-4,4-8.61,8.47-13,13a40.69,40.69,0,0,1-33.13,12.1c-.62-.06-1.28-.1-2-.12-6.45-.15-12.79,2.6-16.52,7.18a15.1,15.1,0,0,0-3,13.39c2.64,11.45,5.91,25.67,26.36,25.67h.78Z" transform="translate(64.78 2.9)"/><path class="cls-15" d="M111.7,235.26c-4.06,0-10.21-.87-14.74-5.43a15.67,15.67,0,0,1-3.82-14.64c2.49-11,9.31-24.55,27.72-26.95a10.89,10.89,0,0,0,1.24-.25c.35-.08.72-.17,1.09-.23a60.18,60.18,0,0,0,33.27-17.55c4.48-4.66,9.1-9.58,13.73-14.62A71,71,0,0,0,186,128.53a30.56,30.56,0,0,0,1-7,31.81,31.81,0,0,1,.92-6.7c1.43-5.12,3-10,7-13.55a37.07,37.07,0,0,1,13.47-7.26c5.65-1.7,11.08-1.89,15.28-.53,8.42,2.72,12.4,11.91,12,19.57,0,.67-.1,1.35-.19,2a39.17,39.17,0,0,0,10.71,32.3c2.25,2.32,4.53,4.71,6.73,7q3.06,3.2,6.14,6.4c8.43,8.8,21.61,14,35.35,14H295c1,0,1.93,0,2.87.11h0c15.27,1.43,28.56,14.73,29.63,29.66a23,23,0,0,1-6.31,17.68,28.43,28.43,0,0,1-21,8.39,33,33,0,0,1-21.08-8.42,28.85,28.85,0,0,1-9.77-20.33c0-.15,0-.31,0-.46v-.08a46.72,46.72,0,0,0-13.71-31.76c-3.44-3.43-6.86-7-10.17-10.41-2.62-2.71-5.33-5.51-8-8.23a35.5,35.5,0,0,0-29.34-10.25l-.3,0c-13.65,1.54-24,9.74-30.25,16.35-1.93,2.08-3.87,4.2-5.76,6.26-4.38,4.78-8.92,9.73-13.57,14.44-6.54,6.72-14.68,17.43-16.3,30.31l-.06.49c-2.06,14.14-14.62,25.83-28.59,26.61C112.79,235.25,112.27,235.26,111.7,235.26ZM217.52,93.4c-7.86,0-16.82,3.85-22.06,8.5-3.81,3.39-5.38,8.17-6.78,13.18a31,31,0,0,0-.89,6.53,31.35,31.35,0,0,1-1,7.15,71.87,71.87,0,0,1-16,27.36c-4.63,5-9.26,10-13.75,14.64a60.93,60.93,0,0,1-33.71,17.78c-.34.05-.67.13-1,.22A13.4,13.4,0,0,1,121,189c-18,2.35-24.62,15.62-27,26.34a14.85,14.85,0,0,0,3.61,13.91c4.94,5,12,5.37,15.7,5.16,13.62-.76,25.85-12.15,27.86-25.93l.06-.47c1.64-13.1,9.89-24,16.52-30.77,4.64-4.7,9.17-9.64,13.55-14.42,1.89-2.06,3.84-4.19,5.77-6.27,6.36-6.71,16.85-15,30.73-16.59l.3,0a36.33,36.33,0,0,1,30,10.48c2.7,2.73,5.4,5.53,8,8.24,3.31,3.43,6.73,7,10.16,10.4a47.47,47.47,0,0,1,13.95,32.3v.08c0,.15,0,.3,0,.45.58,15.08,14.08,27.63,30.08,28a27.59,27.59,0,0,0,20.38-8.14,21.9,21.9,0,0,0,6.09-17.09c-1-14.56-14-27.53-28.91-28.92a25.93,25.93,0,0,0-2.79-.12c-14.18.15-27.82-5.17-36.52-14.25q-3.08-3.18-6.14-6.4c-2.2-2.31-4.48-4.69-6.73-7A39.92,39.92,0,0,1,234.69,115c.09-.65.15-1.31.19-2,.4-7.37-3.39-16.18-11.43-18.78A19.12,19.12,0,0,0,217.52,93.4Z" transform="translate(64.78 2.9)"/><path class="cls-16" d="M342.43,383.39a3.11,3.11,0,0,1-2.12-.77c-2.83-2.49-.53-8.38.57-11.21l.1-.26a55,55,0,0,1,30.09-30.07l.3-.11c2.86-1.12,8.82-3.43,11.27-.58,2.21,2.57-1.07,6.77-2.84,9l-.41.53a148.73,148.73,0,0,1-13.47,14.7l-1.5,1.51a148.44,148.44,0,0,1-14.53,13.28l-.5.39C347.67,381.18,344.83,383.39,342.43,383.39Zm-.71-12-.11.26c-.95,2.46-3.2,8.21-.78,10.34,2.1,1.84,6.13-1.3,8.07-2.81l.51-.39a148,148,0,0,0,14.45-13.22l1.51-1.51a149.3,149.3,0,0,0,13.39-14.62l.42-.54c1.51-1.93,4.65-6,2.87-8-2.09-2.43-7.91-.17-10.4.79l-.29.11c-12.76,4.93-24.68,16.83-29.64,29.62Z" transform="translate(64.78 2.9)"/><path class="cls-17" d="M159.79,383.44c-2.41,0-5.28-2.24-7-3.59l-.52-.4A148.74,148.74,0,0,1,137.55,366l-1.19-1.19A150.35,150.35,0,0,1,122.77,350h0l-.41-.53c-1.64-2.1-5.06-6.47-2.85-9,2.46-2.82,8.4-.49,11.25.63l.32.13c13.12,5.12,24.93,17,30.09,30.21l.12.3c1.1,2.8,3.38,8.62.54,11A3,3,0,0,1,159.79,383.44Zm-36.39-34a149.79,149.79,0,0,0,13.52,14.77l1.18,1.18a149.52,149.52,0,0,0,14.64,13.4c.16.11.33.25.52.4,1.94,1.51,6,4.66,8.07,2.88,2.4-2,.18-7.71-.77-10.13l-.12-.31c-5.09-13-16.73-24.71-29.65-29.76l-.32-.12c-2.47-1-8.27-3.25-10.37-.85-1.78,2.05,1.37,6.07,2.88,8,.16.19.3.37.42.53Z" transform="translate(64.78 2.9)"/><path class="cls-18" d="M379.1,163.08c-2.7,0-5.93-1.3-7.82-2.06l-.34-.14c-13.14-5.26-24.91-17-30-30l-.09-.24c-1.1-2.79-3.39-8.6-.54-11,2.6-2.22,6.81,1.07,9.08,2.83l.51.4a146.59,146.59,0,0,1,14.55,13.31l1.5,1.49a150.8,150.8,0,0,1,13.45,14.69c.11.16.25.33.4.53,1.64,2.1,5.06,6.47,2.78,9A4.54,4.54,0,0,1,379.1,163.08Zm-36.73-43.41a2.34,2.34,0,0,0-1.56.54c-2.42,2.05-.19,7.71.76,10.13l.1.24c5,12.78,16.62,24.39,29.56,29.57l.35.14c2.47,1,8.26,3.33,10.41,1,1.83-2-1.31-6-2.82-7.95l-.41-.53a149,149,0,0,0-13.38-14.61l-1.5-1.5a147.26,147.26,0,0,0-14.47-13.24l-.52-.4C347.37,121.87,344.54,119.67,342.37,119.67Z" transform="translate(64.78 2.9)"/><path class="cls-19" d="M123,163a4.46,4.46,0,0,1-3.42-1.24c-2.29-2.47,1.13-6.84,2.78-8.94l.4-.52a152.22,152.22,0,0,1,13.56-14.82l1.21-1.2a149,149,0,0,1,14.72-13.47l.52-.41c2.27-1.76,6.47-5.05,9.07-2.92,2.85,2.34.57,8.08-.52,10.84l-.11.29c-5.14,13-16.91,24.85-30,30.15l-.36.15C129,161.71,125.71,163,123,163Zm.07-10.46.32.24-.41.52c-1.51,1.93-4.65,5.95-2.82,7.92,2.14,2.32,7.91,0,10.38-1l.37-.15c12.9-5.22,24.51-16.89,29.56-29.71l.12-.29c.94-2.38,3.15-8,.75-9.94-2.11-1.73-6.14,1.42-8.08,2.93l-.53.41a149.73,149.73,0,0,0-14.65,13.41l-1.2,1.2a149.16,149.16,0,0,0-13.49,14.74Z" transform="translate(64.78 2.9)"/><path class="cls-20" d="M295.86,325.32a25.37,25.37,0,0,1-17.61-7.12,29.11,29.11,0,0,1-8.93-21.61c.31-16.41,14.14-29.88,30.83-30h.68c13.87.09,26.93-5.24,35.86-14.62,3.26-3.41,6.76-6.69,10.14-9.85.89-.84,1.79-1.67,2.67-2.51a35.5,35.5,0,0,0,10.79-31.13l0-.13-.06-.39,0-.16c-1.38-11.06-7.33-22-17.68-32.62-4.1-4.14-8.11-8.5-12-12.72q-1.77-1.94-3.55-3.85c-9.53-10.1-21.13-16.38-32.67-17.67l-.55-.07h0a33.49,33.49,0,0,1-18.68-9.31,27.69,27.69,0,0,1-8.63-18.67c-.22-6.58,2.34-12.75,6.86-16.51A15.5,15.5,0,0,1,287,93.21c11.81,2.59,23.71,14.47,27.1,27.05.13.48.23.91.32,1.32,3.2,15,11.71,26.66,18.29,33.86,4.28,4.6,8.58,9.13,12.79,13.46a68.82,68.82,0,0,0,34.57,19l.38.09.52.12c16.84,2.46,24.69,10,28,27,1.13,5.82-.26,11-3.91,14.65-2.27,2.25-7.42,5.94-16.45,5.32l-.47,0a42,42,0,0,0-32.5,10.52c-4.74,4.39-9.28,8.87-13.09,12.67-8.69,8.75-14.05,21.68-14.69,35.49,0,.21,0,.42,0,.64a33.78,33.78,0,0,1-9.62,20.85,31.85,31.85,0,0,1-20.59,10C297.05,325.3,296.45,325.32,295.86,325.32Zm4.54-58h-.24c-16.27.14-29.75,13.27-30.05,29.25a28.32,28.32,0,0,0,8.68,21,24.56,24.56,0,0,0,18.8,6.86,31.15,31.15,0,0,0,20.07-9.8,33.41,33.41,0,0,0,9.4-20.37c0-.21,0-.41,0-.62.66-14,6.1-27.12,14.92-36,3.82-3.82,8.36-8.3,13.12-12.7a42.76,42.76,0,0,1,33.08-10.72l.48,0c3.74.25,10.77-.07,15.84-5.1,3.45-3.44,4.76-8.39,3.68-13.94-1.69-8.7-4.56-14.69-9-18.84-4.21-3.92-10-6.3-18.31-7.51a5.29,5.29,0,0,1-.6-.13l-.34-.08a69.66,69.66,0,0,1-35-19.26c-4.22-4.33-8.52-8.87-12.81-13.48-6.65-7.27-15.24-19.11-18.48-34.23-.09-.39-.19-.81-.31-1.28-3.32-12.32-15-23.95-26.51-26.48a14.76,14.76,0,0,0-13.06,3c-4.33,3.61-6.79,9.54-6.57,15.88A26.92,26.92,0,0,0,275.62,131a32.66,32.66,0,0,0,18.23,9.09h0l.54.07c11.72,1.31,23.5,7.67,33.16,17.91,1.19,1.28,2.37,2.57,3.55,3.85,3.87,4.22,7.88,8.57,12,12.71,10.47,10.71,16.5,21.84,17.91,33.07l0,.16c0,.12,0,.25.05.38l0,.13a36.28,36.28,0,0,1-11,31.81l-2.68,2.51c-3.38,3.16-6.87,6.43-10.11,9.82-9,9.46-22.14,14.87-36.09,14.87h-.77Z" transform="translate(64.78 2.9)"/><path class="cls-21" d="M283.21,409.51a15,15,0,0,1-9.78-3.58c-4.61-3.86-7.3-10.48-7-17.28,0-.61.09-1.26.19-2,1.57-12-2.26-23.75-10.78-33.16-1.9-2.06-3.82-4.17-5.68-6.21-2.3-2.52-4.68-5.14-7.05-7.68-8.9-9.64-22.42-15.15-36.17-14.76a25.9,25.9,0,0,1-2.91-.08c-15.37-1.28-28.72-15-29.74-30.65a25.32,25.32,0,0,1,6.84-19.15,28.27,28.27,0,0,1,20.63-8.79h0c16.44,0,30.33,13.24,31,29.51,0,.19,0,.38,0,.56a52.7,52.7,0,0,0,13.78,34l4.24,4.71c4.47,5,9.1,10.09,13.8,15a35.22,35.22,0,0,0,29.6,10.61l.31,0c10.7-1.14,21.49-7,30.39-16.62l4.32-4.76c4.8-5.32,9.77-10.81,14.84-16.05,9.55-10,15.05-20.4,16.37-31,0-.16,0-.33.07-.5,2.05-14.58,14.54-26,28.45-26H389c6.82,0,13.15,2.85,16.93,7.55A16.07,16.07,0,0,1,409,287.1c-2.73,12.64-11.42,26.18-27.59,26.28a6.37,6.37,0,0,0-1.33.22c-.31.07-.64.15-1,.2-12.11,1.54-24,7.64-33.38,17.16-4.48,4.63-9.07,9.51-13.63,14.49-9.11,10.17-15.26,22.21-17.32,33.91-.11.6-.25,1.26-.43,1.95s-.36,1.41-.54,2.14c-1.49,6-3.18,12.77-7.49,17.14-3.55,3.61-9.83,6.38-19.22,8.47A17.69,17.69,0,0,1,283.21,409.51ZM208.32,324c13.48,0,26.61,5.55,35.36,15,2.37,2.55,4.75,5.17,7.06,7.69,1.85,2,3.77,4.15,5.67,6.21,8.68,9.59,12.58,21.59,11,33.79-.1.77-.15,1.4-.18,2-.28,6.55,2.3,12.93,6.73,16.64a14.58,14.58,0,0,0,13,3c9.23-2.06,15.39-4.76,18.83-8.25,4.16-4.22,5.82-10.9,7.29-16.78.18-.73.36-1.44.54-2.15s.31-1.3.41-1.89c2.08-11.84,8.31-24,17.52-34.3,4.56-5,9.16-9.87,13.65-14.52,9.53-9.64,21.55-15.82,33.84-17.39a6.11,6.11,0,0,0,.89-.18,7.33,7.33,0,0,1,1.51-.24c15.7-.09,24.15-13.31,26.82-25.66a15.32,15.32,0,0,0-2.94-13.27c-3.63-4.52-9.73-7.23-16.32-7.25-13.55,0-25.75,11.07-27.75,25.29,0,.17-.05.33-.07.49-1.34,10.73-6.91,21.3-16.58,31.4-5.06,5.24-10,10.73-14.83,16q-2.14,2.38-4.32,4.77c-9,9.72-20,15.71-30.89,16.87l-.3,0A36,36,0,0,1,264,350.46c-4.71-4.92-9.34-10.06-13.81-15l-4.25-4.71a53.54,53.54,0,0,1-14-34.51c0-.19,0-.37,0-.56-.61-15.85-14.14-28.76-30.16-28.76h0a27.55,27.55,0,0,0-20.06,8.55A24.54,24.54,0,0,0,175.06,294a32.29,32.29,0,0,0,9.24,20.12,31.41,31.41,0,0,0,19.78,9.8h0a26.94,26.94,0,0,0,2.82.08C207.37,324,207.85,324,208.32,324Z" transform="translate(64.78 2.9)"/></g><circle class="cls-22" cx="168.75" cy="217.41" r="7.98"/></g></g></g></svg>