<?xml version="1.0" encoding="UTF-8"?>
<svg id="Capa_2" data-name="Capa 2" xmlns="http://www.w3.org/2000/svg" viewBox="0 0 4000 4000">
  <defs>
    <style>
      .cls-1 {
        fill: #fff;
        fill-rule: evenodd;
      }
    </style>
  </defs>
  <g id="Layer_1" data-name="Layer 1">
    <g>
      <polygon class="cls-1" points="0 0 4000 0 4000 4000 0 4000 0 0 0 0"/>
      <path d="M2899.46,3610.49s-.08,0-.12,0c-185.5-4.73-384.94-7.63-592.78-8.62-2.48-.01-4.48-2.02-4.48-4.5,0-.68-.04-1.67-.08-2.84-.34-8.87-.18-13.26,1.64-15.81,16.11-22.62,30.62-115.18,43.43-196.84,14.62-93.25,24.48-151.61,36.38-166.49,3.09-13.41,1.62-26.79,.2-39.75-1.27-11.55-2.47-22.45,.07-31.72,13.66-50.03,16.76-148.96,7.9-252.03-9.49-110.39-30.44-200.53-56.05-241.12-1.74-2.76-5.83-9.24-8.35-91.69-1.34-44-2.05-102.55-2.09-174.01-.05-74.41,.64-138.62,1.05-170.27,1-77.43,1.71-79.15,2.09-80.07,4.13-10.02,3.81-53.54-3.92-106.37-8.33-57-21.71-99.13-35.78-112.68-6.13-5.91-10.74-4.81-13.67-3.47-13.41,6.12-43.46,10.86-75.41,14.41-62.67,17.03-131.4,25.28-164.19,29.22-2.82,.34-5.37,.64-7.6,.92-11.95,1.47-22.41,2.49-31.52,3.29-3.32,.96-6.58,1.75-9.88,2.3-11.21,1.9-19.45,7.32-25.2,16.57-22.78,36.65-.09,123.66,18.04,185.41,3.05,5.7,4.63,6.82,4.87,6.97,1.77,.65,2.95,2.33,2.95,4.22,0,5.26,.04,10.43,.13,15.5,6.74,22.61,11.38,38.93,11.1,46.16-1.33,33.72,19.74,91.67,40.11,147.7,16.43,45.19,31.95,87.87,35.52,116.94,6.03,49.02,35.55,149.88,59.27,230.92,22.28,76.1,35.91,123.41,35.49,136.42-1.07,33.45,10.98,96.06,22.62,156.61,12.4,64.49,24.12,125.41,19.21,147.73,.04,1.38,.01,3.35-.02,6.29-.05,4.45-.13,10.81-.24,18.48-.2,13.96-.54,35.15-1.05,56.86-1.98,84.52-4.38,90.35-5.29,92.55-10.09,24.49-11.24,43.08-3.4,55.25,13.05,20.26,49.9,21.54,76.8,22.48,20.34,.71,33.77,1.18,38.22,8.27,11.85,18.93,14.46,26.56,10.72,31.43-4.24,5.51-12.98,2.82-28.86-2.08-9.26-2.85-20.77-6.4-33.82-9.06-42.51-8.67-68.06-8.9-80.39-.71-9.53,6.32-11.88,18-14.84,32.79-3.99,19.88-8.95,44.63-33.66,68.06-17.4,16.5-16.48,24.29-14.39,27.46,2,3.03,6.36,5.45,12.79,7.22,28.84-1.25,55.75-2.53,75.88-3.49,10.75-.51,19.56-.93,25.68-1.2,3.08-.14,5.49-.24,7.13-.29,3.12-.11,5.82-.2,6.92,3,.65,1.89-.02,3.99-1.65,5.14-3.98,2.84-35.14,7.35-60.62,8.79-23.37,1.31-41.47,.34-54.15-2.9-63.58,2.75-136.25,5.33-166.65,4.04-56.2-2.4-66.82-14.18-78.06-26.64-12.96-14.37-26.36-29.22-131.25-29.22-22.39,0-38.05-.15-47.86-.47-4.9-.16-8.43-.35-10.82-.6-2.45-.26-7-.73-7.28-4.99-.32-4.78,4.69-5.59,11.03-6.62,4.61-.74,10.89-1.58,18.17-2.55,19.66-2.61,52.58-6.99,59.68-11.64,34.98-22.9,70.96-18.21,105.75-13.68,30.91,4.02,60.1,7.83,86.68-7.9,12.79-7.57,22.5-22.76,29.34-46.06-.46-.72-.95-1.5-1.47-2.32-7.99-12.74-24.6-39.23-48.45-37.49-19.93,1.48-43-9.22-65.3-19.57-31.72-14.71-61.68-28.6-78.58-7.05-31.84,40.61-72.1,63.52-104.45,81.93-35.07,19.96-60.41,34.38-55.81,59.97,.24,1.31-.12,2.66-.98,3.68s-2.12,1.61-3.45,1.61h-541.91c-2.49,0-4.5-2.01-4.5-4.5s2.01-4.5,4.5-4.5h536.83c-1.74-28.46,26.11-44.32,60.86-64.09,31.67-18.02,71.07-40.45,101.82-79.66,21.3-27.16,55.94-11.1,89.45,4.44,21.26,9.86,43.25,20.05,60.86,18.76,23.02-1.71,39.86,16.97,49.99,31.4-7.32-28.5-45.4-41.98-85.65-56.24-21.54-7.63-43.81-15.51-62.56-26.15-11.22-6.37-13.52-34.93-7.46-92.6,.12-1.17,.7-2.25,1.62-3,1.22-1,4.89-6.91,1.11-40.97-2.62-23.65-7.94-54.17-13.58-86.49-11.34-65.05-23.07-132.31-17.44-166.11,4.27-25.66,1.26-102.56-7.5-191.36-8.98-91.07-21.09-165.21-30.84-188.88-1.35-3.26-20.62-98.85-20.62-102.28,.03-5.09-6.58-31.33-13.58-59.11-10.93-43.41-24.54-97.43-26.88-123.83-9.92-111.86-9.92-209.51-9.92-312.89,0-38.7,2.98-57.23,32.11-66.86-6.38-9.52-6.8-24.07-1.38-45.44-.05-17.27-.28-34.65-.49-51.46-.84-65.31-1.62-126.99,6.33-191.6,.65-5.3,1.19-12.54,1.82-20.93,2.82-37.87,7.08-95.09,30.66-115.31,3.53-3.03,7.38-5.14,11.51-6.33-18.67-.4-36.94-1.55-54.3-2.64-28.65-1.8-53.39-3.35-71.44-.87-33.89,4.66-61.03-4.94-76.43-27.04-14.98-21.5-15.65-51.03-1.74-77.07,16.99-31.81,25.64-65.03,33.28-94.33,6.76-25.94,12.59-48.34,22.69-64.07,5.16-8.04,11.17-13.92,18.22-17.73-7.03-9.11-11.38-25.91-13.22-41.08-5.12-42.27,4.44-89.76,25.58-127.02,13.54-23.88,31.77-44.18,54.17-60.32,25.59-18.45,56.74-31.52,92.61-38.85,13.32-2.72,31.47-11.39,49.03-19.77,26-12.41,41.84-19.59,50.53-16.38,.14-4.93,.53-9.07,1.06-12.68,.31-2.96,.66-6.04,1.01-9.17,3.51-30.99,7.88-69.56-14.8-79.45-21.98-9.58-43.29-51.72-51.43-69.39-15.13-32.83-25.29-67.03-25.29-85.1,0-4.32,1.1-16.02,2.23-27.62,.23-2.4,.46-4.68,.54-5.63-.64-.36-1.29-.82-1.96-1.4-9.18-7.94-18.84-39.06-10.41-80.65,1.5-7.4,1.46-13.05,1.41-19.04-.1-12.82-.2-26.07,15.2-54.94,16.59-31.11,52.23-52.02,103.04-60.46,34.5-5.73,64.77-4.04,71.8-3.32v-.06c63.39,0,94.52,27.48,124.21,71.83,7.98,11.92,6.12,27.75,3.96,46.08-2.36,20.07-5.04,42.81,4.17,66.54,3.94,10.16,4.07,78.1-6.79,98.07-1.57,2.89-3.41,4.96-5.5,6.2-1.46,6.02-3.15,9.38-4.55,12.13-2.7,5.34-4.66,9.2-2.19,35.65,.94,10.1,1.45,18.46,1.86,25.18,1.79,29.24,2.11,34.51,28.93,67.75,3.08,3.82,5.93,7.51,8.68,11.09,16.25,21.09,27.99,36.33,58.68,40.11,15.13,1.86,27.74,3.22,37.87,4.3,54.61,5.85,55.65,6.29,111.38,46.42,4.15,2.99,8.62,6.21,13.44,9.66,1.42,1.03,3.21,2.16,4.94,3.25,.64,.41,1.27,.8,1.85,1.18,1.25,.8,2.02,2.17,2.06,3.66,.58,20.15-.08,29.79-.61,37.54-.84,12.34-1.39,20.49,3.61,61.21,2.36,19.19-1.89,67.85-6.66,106.99-2.59,21.28-5.49,41.11-8.16,55.83-1.39,7.7-2.69,13.79-3.84,18.08-1.67,6.22-3.13,9.5-6.47,10.16-.49,.09-4.77,.77-6.26-4.73-8.19-30.15-33.93-54.59-76.51-72.64-35.68-15.12-74.18-22.12-97.18-26.3-7.08-1.29-11.85-2.15-15.12-2.95-5.37,10.33-12.16,21.39-19.99,32.4,.6,.02,1.22,.05,1.86,.07,8.82,.36,22.96,1.21,40.2,3.19,28.73,3.29,69.43,10.17,100.15,24.25,27.87,12.78,42.93,29.35,44.77,49.26,1.03,11.13-2.18,23.2-9.55,36.04,7.95-3.18,13.84-2.91,17.74,1.66,19.69,23.09,5.26,48.11-11.44,77.08-15.53,26.94-33.13,57.46-33.13,96.95v5.83c.31,18.24-1.44,39.33-3.3,61.65-3.8,45.65-7.73,92.85,5.06,123.79,2.35,5.69,2.94,21.93,3.86,52.52,1.26,41.97,2.98,99.46,12.9,123.46,7.21,17.45,6.36,33.98-2.53,49.16-4.26,7.28-10.29,14.02-17.74,20.28,6.71,.48,8.31,2.71,9.19,3.94,.95,1.32,2.75,4.91-.95,9.69-3.33,4.3-10.71,9.04-20.16,12.83,1.02,.76,2.05,1.63,3.09,2.64,22.28,21.46,34.3,89.57,38.44,117.86,6.16,42.15,9.45,94.83,3.54,110.56-.82,8.9-2.79,127.24-2.67,250.99,.21,225.82,6.98,254.07,9.05,257.35,26.74,42.37,47.66,131.73,57.41,245.16,8.94,104.04,5.73,204.2-8.19,255.17-2.08,7.62-.97,17.7,.2,28.37,1.47,13.41,3.14,28.61-.66,43.92-.18,.74-.56,1.43-1.08,1.99-11.28,12.09-23.29,88.66-34.9,162.72-13.54,86.35-27.54,175.63-44.79,200.39-.43,1.56-.32,6.36-.22,9.23,206.34,1.01,404.36,3.91,588.63,8.6,2.49,.06,4.45,2.13,4.38,4.61-.06,2.45-2.06,4.39-4.5,4.39Zm-1159.01-73.52c4.87,.02,10.13,.03,15.79,.03,108.89,0,123.65,16.37,137.93,32.2,9.94,11.02,19.33,21.44,71.76,23.68,27.51,1.18,90.3-.88,149.29-3.33-.51-.5-.98-1-1.41-1.53-8.16-9.91-3.24-23.51,14.6-40.44,22.63-21.47,27.09-43.69,31.03-63.3,3.24-16.17,6.05-30.13,18.69-38.52,14.86-9.86,40.93-10.04,87.17-.61,13.47,2.75,25.23,6.37,34.67,9.28,7.27,2.24,15.4,4.75,18.7,4.79-.42-2.12-2.5-7.45-10.84-20.76-1.91-3.04-19.36-3.65-30.91-4.06-28.89-1.01-68.45-2.39-84.06-26.6-9.67-15-8.8-35.79,2.64-63.55,3.87-9.92,5.91-149.89,5.97-171.46,0-.34,.04-.68,.11-1.02,4.65-20.24-7.48-83.3-19.21-144.29-11.74-61.04-23.88-124.15-22.78-158.6,.39-12.24-16.87-71.19-35.13-133.61-25.05-85.59-53.45-182.6-59.57-232.35-3.45-28.05-18.8-70.27-35.05-114.96-16.52-45.44-33.49-92.11-38.92-127.14,3.5,37.55,8.87,70.73,14.13,103.26,12.7,78.59,24.7,152.82,9.58,275.68-3.61,29.32,4.21,88.86,12.5,151.89,7.72,58.76,15.71,119.53,15.71,164.17,0,19.15-1.4,39.18-2.76,58.56-1.39,19.88-2.83,40.44-2.83,60.59,0,.58-.11,1.15-.33,1.68-15.35,38.01-14.76,108.07-14.15,182.25,.56,68.09,1.14,137.66-10.97,186.65,.15,.85,.27,1.6,.37,2.27,.48,3.21,1.15,7.59-2.73,9.14-.32,.13-.62,.22-.91,.29-7,22.25-17.29,39.12-32.36,48.04-29.26,17.31-61.37,13.13-92.43,9.08-33.17-4.32-67.47-8.79-99.66,12.28-6.27,4.1-22.76,7.25-43.64,10.3Zm113.02-275.38c-.98,9.38-2.9,28.55-3.05,46.25-.26,30.86,5.08,35.46,6.15,36.07,18.06,10.24,39.95,17.99,61.12,25.49,39.66,14.04,77.33,27.38,89.16,55.86,.89-5.2,1.69-10.67,2.4-16.42,5.4-43.77,4.95-97.69,4.52-149.85-.62-74.58-1.2-145.06,14.48-184.87,.04-20.18,1.47-40.6,2.85-60.35,1.41-20.11,2.74-39.1,2.74-57.94,0-44.05-7.95-104.52-15.63-163-8.36-63.62-16.26-123.71-12.51-154.16,14.97-121.59,3.07-195.21-9.53-273.15-8.28-51.25-16.83-104.1-18.05-173.11-.61-2.04-1.23-4.11-1.85-6.2-1.77-5.92-3.62-12.11-5.51-18.51-3.12-6-7.01-15.09-11.82-28.97-6.05-17.46-11.61-37.18-11.93-41.07-2.93-36.25-6.79-62.83-9.61-82.24-4.31-29.64-6.27-43.17,.62-51.84,6.62-8.32,19.44-9.37,44.98-11.47,3.56-.29,7.39-.61,11.5-.97,5.18-1.54,10.61-3.53,16.53-5.7,5.44-2,11.45-4.2,18.23-6.4-16.62,.74-30.13,1-37.6,.76-19.24-.63-36.15-.44-52.5-.27-37.16,.4-69.25,.75-113.86-8.32-10.67-2.17-23.02-1.66-34.95-1.16-16.95,.71-33.12,1.38-43.93-5.59-28.93,7.76-30.37,22.7-30.37,59.73,0,103.18,0,200.64,9.88,312.1,2.28,25.68,15.79,79.32,26.65,122.42,8.76,34.79,13.77,54.94,13.85,61.12,.69,5.72,18.44,93.77,20,99.19,12.19,29.79,24.22,118.29,31.42,191.28,6.81,69.03,12.84,161.18,7.42,193.72-5.38,32.29,6.74,101.78,17.43,163.09,13.38,76.73,20.66,122.03,10.78,134.46Zm135.19-1030.13c.15,2.53,.32,5.04,.49,7.53,0-.73,.03-1.45,.06-2.16,.05-1.28-.15-3.1-.55-5.38Zm-25.55-268.43c-9.54,1.21-15.39,2.84-18.04,6.16-3.57,4.48-3,14.27-.75,30.92,1.69-9.92,4.64-18.7,9.15-25.95,2.71-4.37,5.93-8.08,9.64-11.13Zm168.65-30.44c-11.51,.82-21.36,1.44-28.36,1.88-30.57,1.94-52.07,7.01-69.15,12.43,20.78-2.49,57.35-6.88,97.5-14.31Zm-168.78-2.2c9.17,0,18.74,.11,28.98,.44,15.68,.51,59.71-1.38,100.27-5,73.86-6.6,81.71-13.55,82.36-14.32,.85-1.01,2.14-1.63,3.47-1.63,5.06,0,12.58-1.36,20.46-3.25-.04,0-.08,0-.13,0-43.71,0-115.8,7.07-164.03,11.8-22.11,2.17-39.57,3.88-49.69,4.51-29.38,1.84-69.85-.03-108.98-1.84-42.17-1.95-82-3.79-104.92-.97-2.16,.27-4.24,.54-6.23,.83,7.48,.88,16.34,.51,25.45,.13,12.47-.52,25.37-1.06,37.12,1.33,43.67,8.88,75.31,8.54,111.96,8.14,7.78-.08,15.69-.17,23.92-.17Zm216.94-11.55c-.35,.28-.78,.57-1.29,.89,4.28-.41,8.58-.83,12.86-1.28,2.21-.23,4.38-.46,6.51-.7,10.71-2.91,20.72-5.94,30.04-9.09-.77-.17-1.6-.32-2.46-.46-12,4.03-32.92,10.07-45.65,10.65Zm-384.06-424.68c-5.19,0-9.76,1.74-13.91,5.3-20.74,17.78-24.99,74.97-27.54,109.14-.63,8.5-1.18,15.84-1.86,21.36-7.88,64-7.09,125.39-6.26,190.38,.22,17.02,.44,34.62,.49,52.12,0,.38-.05,.76-.14,1.13-5.03,19.57-4.74,33.01,.88,39.94,.34,.42,.71,.83,1.09,1.21,6.09-1.41,13.07-2.57,21.05-3.55,23.68-2.91,63.88-1.06,106.44,.91,38.89,1.8,79.11,3.66,108,1.85,9.96-.62,27.35-2.33,49.37-4.49,62.94-6.17,154.52-15.15,191.06-10.44,30.01-10.35,49.63-15.46,62.55-17.64,12.27-8.19,21.13-16.91,26.53-26.12,7.49-12.79,8.14-26.26,1.98-41.17-10.55-25.52-12.3-83.96-13.58-126.62-.66-22.08-1.35-44.92-3.18-49.36-13.62-32.96-9.6-81.26-5.71-127.98,1.84-22.09,3.58-42.96,3.27-60.82v-5.9c0-41.89,19.04-74.91,34.34-101.44,16.23-28.15,27.96-48.49,12.39-66.75-.33-.38-3.72-3.37-22.37,9.2-.09,.06-.19,.13-.28,.19-14.96,18.42-38.05,38.7-68.7,60.32-13.95,9.84-27.44,20.35-40.48,30.52-43.39,33.81-84.37,65.74-138.9,72.44-22.98,2.82-45.79,4.18-64.19,3.82-26.34-.52-28.53-3.78-29.58-5.34-1.06-1.58-1.14-3.59-.22-5.24,1.34-2.38,3.75-4.28,21.29-5.17,12.91-.66,31.16-.52,52.78,.41,1.24,.05,2.49,.08,3.74,.08,63.83,0,145.93-67.82,206.18-117.61,20.91-17.27,38.16-31.53,51.9-40.93,2.55-3.19,4.84-6.33,6.86-9.4,11.36-17.19,14.51-32.5,9.38-45.48-11.32-28.66-60.28-43.37-99.36-50.67-33.93-6.34-67.86-8.37-82.91-8.66-12.84,16.77-27.91,32.97-43.88,45.84-31.98,25.76-63.26,35.04-90.45,26.83-1.78-.54-3.76-.99-5.92-1.36-46.48,14.71-87.6,15.82-138.12,17.19-2.56,.07-5.14,.14-7.75,.21-19.95,4.54-38.05,9.24-51.62,13.26-1.9,.56-44.42,.89-44.84,.9-15.81,.09-26.33-.05-33.4-.34-2.04,6.84-4.11,13.85-5.87,20.5,1.07,11.48,4.23,24.49,10.63,39.19,.66,1.53,1.38,3.03,2.14,4.51,20.33,12.21,37.49,23.98,54.2,35.42,43.66,29.92,78.14,53.55,142.28,66.63,24.42,4.98,34.34,10.63,33.17,18.88-.95,6.76-10,12.17-30.25,18.09-14.04,4.11-33.33,8.35-57.34,12.61-39.1,6.94-81.97,12.29-83.48,12.16-.65-.05-1.29-.08-1.92-.08Zm494.13,395.93c-8,5.14-16.97,9.9-26.66,14.31,10.5-1.09,20.57-4.14,28.19-7.58,6.68-3.01,10.58-5.84,12.41-7.63-2.1-.26-6.25-.32-13.94,.9Zm-49.31,13.02c.56,.14,1.13,.28,1.7,.4,3.72-1.42,7.32-2.86,10.78-4.33-3.87,1.17-8.03,2.48-12.47,3.93Zm-555.97-430.61c14.49,0,31.06,1.04,49.16,2.18,43.37,2.73,92.53,5.81,138.54-3.55,21.39-4.35,36.71-8.22,46.84-11.81,11.47-4.07,13.17-6.8,13.37-7.23-.18-.52-1.59-3.12-12.74-8.1-8.75-3.91-20.83-8.16-34.82-13.08-50.31-17.69-125.15-44.01-152.63-94.03-3.93-2.34-7.98-4.7-12.17-7.07-10.37-5.88-8.82-21.52-3-43.71-.65-7.96-.37-15.23,.51-21.86-.45-.28-.73-.57-1.01-.87-1.24-1.32-1.64-3.19-1.03-4.88,.5-1.39,1.08-2.39,3.66-3.32,2.7-11.9,7.07-21.42,10.54-28.95,2.6-5.65,5.55-12.06,4.4-13.78-3.69-5.52-43.25-3.96-64.51-3.12-1.39,.06-2.72-.14-4-.57-20.83,8.05-28.97,35.03-40.13,77.87-7.76,29.79-16.56,63.55-34.05,96.3-12.3,23.04-11.85,48.97,1.19,67.68,13.36,19.18,37.45,27.45,67.81,23.26,7.17-.99,15.24-1.37,24.07-1.37Zm249.38-31.14c5.23,3.51,7.81,7.11,7.52,11.34-.19,2.71-1.4,5.27-4.67,7.86,18.59-5.5,22.18-9.16,22.87-10.27-.76-.96-4.94-4.67-25.72-8.93Zm-182.37-92.55c18.45,21.37,46.87,37.62,75.88,50.45-13.24-8.11-25.99-16.85-39.3-25.97-11.66-7.99-23.56-16.14-36.58-24.48Zm-29.94-38.6c-.45,6,.29,10.28,2.91,11.76,.44,.25,.88,.5,1.32,.75-1.66-4.31-3.06-8.48-4.23-12.52Zm96.92-56.19c-15.37,.77-31.74,1.86-49.41,3.52,18.14-.12,35.38-.48,39.21-.64,2.99-.88,6.41-1.85,10.2-2.88Zm-69.06-57.18c-2.74,18.47-7.92,37.49-13.14,55.25,.76-.1,1.56-.2,2.38-.3,48.62-5.98,87.85-7.39,122.51-8.35,48.87-11.08,112.3-22.19,145.66-17.65,37.16-12,77.89-32.91,129.95-70.01,.78-.56,1.46-1.04,6.73-1.1,9.48-12.82,17.5-25.74,23.49-37.36-.28-1.31,0-2.69,.81-3.82,1.38-1.95,1.82-12.24,2.18-20.51,1.26-29.22,3.34-77.35,37.46-104.43,1.61-1.36,2.99-2.35,4.03-2.99,.1-.07,.21-.14,.31-.21v.02c.64-.37,1.12-.59,1.41-.67,2.1-.56,4.3,.48,5.22,2.45,.92,1.97,.29,4.32-1.49,5.58-1.22,.84-2.39,1.7-3.53,2.6-8.29,7-29.82,30.65-25.54,84.83,.64,8.07-2.77,20.13-9.2,34.04,3.36,.72,8.05,1.57,12.65,2.4,23.37,4.25,62.48,11.36,99.08,26.87,40.5,17.16,66.77,40.13,78.25,68.39,7.49-33.96,20.91-142.55,17.21-172.7-5.11-41.58-4.53-50.07-3.66-62.92,.49-7.24,1.1-16.18,.66-34.28-1.7-1.08-3.6-2.28-5.18-3.42-4.82-3.46-9.29-6.67-13.44-9.67q-54.32-39.12-107.08-44.78c-10.16-1.09-22.81-2.45-38.01-4.32-17.79-2.19-30.13-8.11-40.14-16.23,.38,1.18,.47,2.35,.27,3.6-.76,4.71-5.08,6.87-13.68,11.17-11.14,5.57-29.79,14.9-57.61,36.73-14.11,11.08-46.66,22.61-81,28.69-39.47,6.99-73.19,5.61-92.54-3.79-13.67-6.64-20.89-17.44-20.89-31.23,0-.83-.16-1.11-.16-1.11-.05-.02-2.27-1.53-13.93,2.75-8.36,3.07-18.74,8.02-29.72,13.27-18.05,8.61-36.71,17.52-51.11,20.46-147.44,30.14-173.23,150.14-165.22,216.29,2.74,22.66,8.93,34.8,13.18,38.6,6.78-1.87,14.39-2.25,22.96-1.2,24.57,3.02,42.1,1.04,51.49-5.71,2.89-21.98,1.83-42.63-7.68-58.28-1.09-1.79-.8-4.1,.71-5.56,1.5-1.46,3.82-1.69,5.58-.55,.34,.22,.81,.73,1.38,1.46l.03-.02c.05,.08,.1,.17,.15,.25,2.75,3.65,7.53,12.12,10.51,18.88,6.71,15.2,8.28,27.98,4.65,37.98-1.49,4.11-3.8,7.64-6.91,10.6Zm225.78,37.32c-17.33,1.02-37.7,3.72-58.55,7.29,19.96-1.19,39.05-3.23,58.55-7.29Zm48.59-4.66c28.1,4.62,55.81-11.69,74.75-26.95,11.3-9.11,22.02-19.86,31.72-31.21-41.17,28.36-75.3,46.47-106.46,58.16Zm-285.94-25.59c.4,.24,.77,.5,1.12,.76,.08-.44,.16-.88,.25-1.32-.45,.19-.9,.37-1.37,.55Zm184.6-296.58c.04,.44,.07,.91,.07,1.39,0,10.39,5.18,17.96,15.83,23.14,17.67,8.59,49.39,9.69,87.03,3.03,33.02-5.85,63.97-16.67,77.02-26.91,28.53-22.4,47.69-31.98,59.14-37.7,3.48-1.74,7.05-3.53,8.49-4.62-1.09-1.67-4.38-4.94-7.82-8.37-9.57-9.53-27.39-27.28-51.58-61.19-1.92-2.68-1.96-7.52-1.86-18.2,.06-7.53,.17-20.13-1.78-23.18-1.05-1.64-.92-3.77,.31-5.28,.71-.87,4.12-6.6,.8-33.74-.72-5.9-1.61-11.59-2.48-16.48-14.52,42.3-27.13,72.31-48.84,92.57-26.59,24.82-64.4,31.63-122.61,22.09-2.12-.35-3.96-.93-5.58-1.63,.72,2.93,1.43,6.4,2.12,10.54,5.04,30.15,2.04,40.36-1.13,51.18-1.18,4.03-2.39,8.15-3.22,13.59-.61,5.86-1.05,11.23-1.05,15.58,0,1.9-1.18,3.53-2.85,4.19Zm195.69-116.17c14.91,20.88,27.08,35.22,36.55,45.47-.1-.13-.2-.25-.29-.38-2.72-3.54-5.54-7.19-8.56-10.93-18.36-22.76-25.12-33.87-28.1-46.89-.04,4.76-.08,10.95,.4,12.73Zm-195.94,6.88c1.98,.93,3.64,2.07,5.18,3.13,2.56,1.76,4.76,3.27,8.22,3.84,113.62,18.63,134.26-27.14,166.68-124.09,.57-1.71,2.13-2.93,3.92-3.08,1.79-.14,3.56,.86,4.4,2.46,.6,1.15,1.78,6.21,3.02,12.78,.7-2.2,1.58-4.06,2.59-6.05,1.33-2.64,2.71-5.35,3.94-10.65-2.62,1.96-5.32,3.02-8,2.84-11.54-.77-11.54-19.83-11.54-26.09,0-43.24-5.05-61.8-10.9-83.29-3.23-11.87-6.89-25.33-10.11-44.34-3.88-22.97-30.91-43.38-53.72-48.02-13.02-2.65-26.49,7.02-38.36,15.55-11.54,8.28-22.43,16.11-31.32,9.76-11.43-8.16-34.34-3.35-44.12-1.3-3.9,.82-5.53,1.15-6.88,1.09-11.5-.49-20.67,1.02-28.02,4.04-4.48,5.96-8.99,13.15-13.53,21.85-2.13,4.07-4,7.62-5.64,10.74q-11.11,21.15-10.84,25.9c.26,4.51,.69,12.06-2.87,33.02-.84,4.95-2.36,8.54-4.54,10.72-.36,.82-.74,1.6-1.15,2.34-.08,.96-.24,2.57-.52,5.41-.77,7.86-2.19,22.5-2.19,26.75,0,35.2,41.45,133.22,71.32,146.24,3.84,1.67,7.07,3.91,9.79,6.6,.84-.09,1.76,0,2.72,.35,.79,.29,1.62,.73,2.46,1.49Zm186.17-178.48c.8,9.46,1.26,20.41,1.26,33.58,0,14.92,3.15,17.11,3.18,17.12,.03,0,.06,0,.1,0,3.2,0,13.39-13.25,15.87-30.04,1.29-8.76,.52-19.67-10.45-21.9-5.95-1.21-8.16,.19-8.54,.48-.46,.35-.93,.6-1.4,.76Zm5.86-10.72c1.73,.02,3.68,.22,5.88,.67,6.25,1.27,11.03,4.53,14.1,9.37,.68-19.47-.19-37.52-1.51-40.92-10.02-25.81-7.08-50.78-4.71-70.84,1.95-16.56,3.63-30.86-2.5-40.02-28.76-42.96-57.08-67.84-116.73-67.84-.22,0-.44-.02-.66-.05-2.87-.28-129.25-10.25-166.24,59.12-14.32,26.85-14.23,38.4-14.14,50.63,.05,6.18,.1,12.57-1.59,20.89-3.69,18.2-4,36.66-.88,51.97,2.28,11.19,5.65,17.14,7.68,19.44,1.92-6.77,2.74-16.12,3.59-25.86,1.58-18.08,3.38-38.57,12.39-54.74,5.52-9.91,13.07-17.07,22.8-21.54,23.65-29.81,47.58-30.15,69.16-30.46,10-.14,19.44-.28,28.59-3.15,16.74-5.24,27.67-9.78,35.66-13.09,23.55-9.77,24.87-9.01,58.46,10.47,5.01,2.91,10.7,6.2,17.35,9.99,25.28,14.38,40.63,86.97,37.16,115.16-1.03,8.33-2.35,15.39-3.87,20.79Zm-92.81-140.79c2.07,0,4.16,.2,6.27,.63,25.62,5.22,56.16,27.86,60.8,55.34,3.14,18.57,6.58,31.23,9.92,43.47,3.09,11.36,5.97,21.92,8.03,35.53,.9-3.85,1.86-9.07,2.72-16.07,3.42-27.77-13-95.04-32.68-106.23-6.69-3.81-12.39-7.11-17.42-10.03-16.02-9.29-24.06-13.96-30.11-15.09-5.49-1.03-10.16,.91-20.38,5.15-8.14,3.38-19.29,8-36.42,13.36-10.4,3.26-20.95,3.41-31.15,3.56-18.02,.26-35.35,.5-52.9,16.74,5.35-.79,11.14-1.06,17.4-.8,.66-.05,2.83-.5,4.75-.91,11.87-2.49,36.56-7.68,51.21,2.78,3.64,2.6,12.39-3.67,20.84-9.74,11.12-7.99,24.63-17.69,39.13-17.69Z"/>
    </g>
  </g>
</svg>