<svg xmlns="http://www.w3.org/2000/svg" viewBox="0 0 649.82 840.56"><defs><style>.cls-1{fill:#ebf0f6;}.cls-2{fill:#1c3e58;}.cls-3,.cls-5{fill:#25ce9e;}.cls-4{fill:#3761fe;}.cls-4,.cls-5{fill-rule:evenodd;}</style></defs><g id="Layer_2" data-name="Layer 2"><g id="Illustration"><path class="cls-1" d="M299.66,694.41v3.45c-.15,2.41-1.82,4.79-5,6.62-6.68,3.86-17.5,3.86-24.18,0-3.18-1.83-4.85-4.21-5-6.62v-3.45c-2,1.65-3.16,3.6-3.16,5.69,0,5.88,9.07,10.64,20.25,10.64s20.25-4.76,20.25-10.64C302.82,698,301.65,696.06,299.66,694.41Z"/><path class="cls-1" d="M78.91,691.91v3.14c-.15,2.41-1.81,4.79-5,6.63-6.68,3.85-17.51,3.85-24.19,0-3.18-1.84-4.84-4.22-5-6.63v-3.14c-2,1.65-3.15,3.59-3.15,5.69,0,5.88,9.06,10.64,20.24,10.64s20.25-4.76,20.25-10.64C82.07,695.51,80.9,693.56,78.91,691.91Z"/><path class="cls-1" d="M255.47,343.6l-39.81,23.25-10.18,5.91L149,340.25l-3.94-2.91-2-2.6-.34-.92a3.54,3.54,0,0,0-1,1.28c-.56,1.86,1.7,3.54,3.53,4.59l60.21,34.49,50.67-29.41Z"/><path class="cls-1" d="M275.79,333a1.15,1.15,0,0,0-.69-1.64s0,1.06,0,1.06l-11.88,6.89,1.09.78,9.48-5.5S275.48,333.63,275.79,333Z"/><rect class="cls-2" x="519.96" y="512.22" width="21.74" height="1" transform="translate(-185.23 334.05) rotate(-29.99)"/><rect class="cls-2" x="513.92" y="357.58" width="1" height="133.27" transform="translate(-109.91 658.33) rotate(-60.07)"/><polygon class="cls-1" points="457.41 776.61 538.92 822.98 641.09 765 630.12 758.93 630.12 766.54 539.97 818.59 538.54 818.59 469.14 778.24 469.14 769.61 457.41 776.61"/><rect class="cls-2" x="423.15" y="104.8" width="2" height="1" transform="translate(318.01 529.24) rotate(-89.89)"/><path class="cls-2" d="M424.52,175.51h-1v-3.84h1Zm0-7.69h-1V164h1Zm0-7.69h-1v-3.84h1Zm0-7.69h-1v-3.85h1Zm0-7.69h-1V140.9h1Zm0-7.69h-1v-3.85h1Zm0-7.69h-1v-3.85h1Zm0-7.69h-1v-3.85h1Zm0-7.69h-1v-3.85h1Z"/><rect class="cls-2" x="423.01" y="179.85" width="2" height="1" transform="translate(242.82 604) rotate(-89.89)"/><path class="cls-2" d="M87.41,688.47l-.5-.87,3.46-2,.5.87Zm6.92-4-.51-.87,3.46-2,.5.87Zm6.91-4-.5-.87,3.46-2,.5.87Zm6.92-4-.5-.86,3.45-2,.51.86Zm6.91-4-.5-.86,3.46-2,.5.86Z"/><path class="cls-2" d="M236.29,730l-.5-.86,3.46-2,.5.87Zm6.92-4-.5-.87,3.45-2,.51.87Zm6.91-4-.5-.87,3.46-2,.5.87Zm6.92-4-.5-.87,3.46-2,.5.87Zm6.92-4-.51-.87.36-.21.5.87Z"/><rect class="cls-3" x="111.48" y="531.96" width="2" height="1" transform="translate(-249.35 125.96) rotate(-29.74)"/><path class="cls-3" d="M117.1,530.4l-.5-.87,3.5-2,.5.87Zm7-4-.5-.87,3.5-2,.5.87Zm7-4-.5-.87,3.5-2,.5.87Zm7-4-.49-.86,3.5-2,.49.86Zm7-4-.49-.87,3.5-2,.49.87Zm7-4-.49-.87,3.5-2,.5.87Zm7-4-.5-.87,3.5-2,.5.87Zm7-4-.5-.87,3.5-2,.5.87Zm7-4-.5-.87,3.5-2,.5.87Zm7-4-.5-.87,3.51-2,.49.86Zm7-4-.49-.86,3.5-2,.49.87Zm7-4-.49-.87,3.5-2,.49.87Zm7-4-.5-.87,3.5-2,.5.87Zm7-4-.5-.87,3.5-2,.5.87Z"/><rect class="cls-3" x="214.74" y="472.95" width="2" height="1" transform="translate(-206.48 169.43) rotate(-29.75)"/><rect class="cls-3" x="490.56" y="800.71" width="2" height="1" transform="translate(-341.83 366.44) rotate(-30.92)"/><path class="cls-3" d="M423.15,840.56c-.63,0-1.21,0-1.79-.12l.14-1a12.55,12.55,0,0,0,1.64.11,12.27,12.27,0,0,0,2.18-.19l.17,1A14.22,14.22,0,0,1,423.15,840.56ZM417.48,839,414,837l.5-.87,3.46,2Zm12,0-.57-.82,3.43-2,.51.86ZM410.56,835l-3.46-2,.5-.87,3.46,2Zm25.69-.13-.51-.86,3.42-2,.51.86Zm-32.61-3.83-3.46-2,.5-.87,3.46,2Zm39.45-.27-.52-.85,3.42-2.05.52.86Zm-46.37-3.69-3.46-2,.5-.87,3.46,2Zm53.21-.4-.52-.86,3.42-2.05.52.86Zm-60.13-3.55-3.46-2,.5-.87,3.46,2Zm67-.55-.52-.85,3.42-2,.51.86Zm-73.89-3.41-3.46-2,.5-.87,3.46,2Zm80.72-.68-.51-.86,3.42-2,.51.86ZM376,815.26l-3.46-2,.5-.87,3.46,2Zm94.48-.82-.51-.86,3.42-2.05.51.86ZM369,811.3l-3.46-2,.5-.87,3.46,2Zm108.24-1-.51-.86,3.42-2,.51.85Zm-115.16-3-3.46-2,.5-.87,3.46,2Zm122-1.1-.51-.86,3.42-2,.51.86ZM355.2,803.39l-3.46-2,.5-.87,3.46,2Zm-6.92-3.95-3.46-2,.5-.87,3.46,2Zm-6.92-4-3.46-2,.5-.87,3.46,2Zm-6.92-4-3.46-2,.5-.87,3.46,2Zm-6.92-4-3.46-2,.5-.87,3.46,2Zm-6.92-4-3.46-2,.5-.87,3.46,2Zm-6.92-4-3.46-2,.5-.86,3.46,2Zm-6.92-3.95-3.46-2,.5-.87,3.46,2Zm-6.92-4-3.46-2,.5-.86,3.46,2Zm-6.92-4-3.46-2,.5-.87,3.46,2Zm-6.92-4-3.46-2,.5-.86,3.46,2Zm-6.92-4-3.46-2,.5-.87,3.46,2Zm-6.92-4-3.46-2,.5-.86,3.46,2ZM265.24,752l-3.46-2,.5-.87,3.46,2Zm-6.92-4-3.46-2,.5-.86,3.46,2Zm-6.92-3.95-3.46-2,.49-.87,3.47,2Zm-6.92-4-3.46-2,.49-.86,3.46,2Zm-6.92-4-3.46-2,.49-.87,3.46,2Zm-6.92-4-3.46-2,.49-.87,3.46,2Zm-6.92-4-3.46-2,.49-.87,3.46,2Zm-6.92-4-3.46-2,.49-.87,3.46,2Zm-6.92-4-3.46-2,.49-.87,3.46,2Zm-6.92-4-3.46-2,.49-.87,3.46,2Zm-6.92-4-3.46-2,.49-.87,3.46,2Zm-6.92-3.95-3.46-2,.49-.87,3.46,2Zm-6.92-4-3.46-2,.49-.87,3.46,2Zm-6.92-4-3.46-2,.49-.87,3.46,2Zm-6.92-4-3.46-2,.49-.87,3.46,2Zm-6.92-4-3.46-2,.49-.87,3.46,2Zm-6.92-4-3.46-2,.49-.87,3.46,2Zm-6.92-4-3.46-2,.49-.87,3.46,2Zm-6.92-4-3.46-2,.49-.87,3.46,2Zm-6.92-3.95-3.47-2,.5-.87,3.46,2Zm-6.92-4-3.46-2,.49-.86,3.46,2Zm-6.92-4-3.46-2,.49-.87,3.46,2ZM113,665l-3.46-2,.49-.86,3.46,2Zm-6.93-4-3.46-2,.5-.87,3.46,2Zm-6.92-4-3.46-2,.5-.86,3.46,2Zm-6.92-3.95-3.46-2,.5-.87,3.46,2Zm-6.92-4-3.46-2,.5-.86,3.46,2Zm-6.92-3.95-3.46-2,.5-.87,3.46,2Zm-6.92-4-3.46-2,.5-.87,3.46,2Zm-6.92-4-3.46-2,.5-.87,3.46,2Zm-6.92-4-3.46-2,.5-.87,3.46,2Zm-6.92-4-3.46-2,.5-.87,3.46,2Zm-6.92-4-3.46-2,.5-.87,3.46,2Zm-6.92-4-3.46-2,.5-.87,3.46,2Zm-6.92-4-3.46-2,.5-.87,3.46,2Zm-6.92-4-3.46-2,.5-.87,3.46,2Zm-6.92-3.95-3.46-2,.5-.87,3.46,2Zm-6.92-4-3.46-2,.5-.87,3.46,2Zm-6.92-4-.16-.1A3.67,3.67,0,0,1,0,598.46,3.37,3.37,0,0,1,0,598l1,.15c0,.1,0,.2,0,.29a2.74,2.74,0,0,0,1.6,2.26l.17.09Zm.92-6.18-.52-.85.2-.12,3.27-1.87.5.87Zm6.91-4-.5-.87,3.46-2,.5.86ZM17,587.6l-.5-.87,3.47-2,.49.87Zm6.92-4-.49-.87,3.46-2,.49.86Zm6.92-3.95-.49-.87,3.46-2,.49.87Zm6.92-4-.49-.87,3.46-2,.49.87Zm6.92-4-.49-.87,3.46-2,.49.87Zm6.92-4-.49-.87,3.46-2,.49.87Zm6.92-4-.49-.87,3.46-2,.49.87Zm6.92-4L65,559l3.46-2,.49.87ZM72.38,556l-.49-.87,3.46-2,.49.87Z"/><rect class="cls-3" x="78.94" y="550.56" width="2" height="1" transform="translate(-262.89 112.28) rotate(-29.75)"/><path class="cls-2" d="M83.36,689.2c-.48-.4-1-.79-1.57-1.17l.56-.83A20,20,0,0,1,84,688.43Z"/><path class="cls-2" d="M59.89,713.43c-1.42-.06-2.83-.18-4.2-.37l.14-1c1.33.18,2.71.3,4.1.36Zm4.21,0,0-1c1.38-.07,2.76-.2,4.1-.39l.14,1C66.92,713.21,65.51,713.35,64.1,713.42ZM51.54,712.3a37.32,37.32,0,0,1-4-1.21l.34-.94a35.49,35.49,0,0,0,3.94,1.18Zm20.89-.08-.24-1A36.69,36.69,0,0,0,76.11,710l.36.94A39.73,39.73,0,0,1,72.43,712.22Zm-28.81-2.83-.87-.49a21.88,21.88,0,0,1-2.7-1.81l.62-.79A22.31,22.31,0,0,0,43.25,708c.27.16.56.31.84.46Zm36.7-.16-.48-.88.56-.31a21.93,21.93,0,0,0,2.83-1.94l.64.78a23,23,0,0,1-3,2ZM37,704.06a11.56,11.56,0,0,1-2-3.86l1-.27a10.75,10.75,0,0,0,1.8,3.53Zm49.81-.28L86,703.2a10.27,10.27,0,0,0,1.68-3.57l1,.23A11.32,11.32,0,0,1,86.83,703.78Zm-51-7.75-1-.18a11,11,0,0,1,1.66-4l.84.55A9.92,9.92,0,0,0,35.84,696Zm51.9-.3a10.26,10.26,0,0,0-1.63-3.6l.82-.57a11.28,11.28,0,0,1,1.79,4Z"/><path class="cls-2" d="M40.07,689.38l-.65-.76c.5-.43,1-.85,1.62-1.25l.57.82C41.07,688.57,40.55,689,40.07,689.38Z"/><path class="cls-2" d="M61.83,705.06a25.2,25.2,0,0,1-12.35-2.95c-3.21-1.86-5.07-4.35-5.24-7l0-9.9h1l0,9.88c.14,2.3,1.83,4.51,4.74,6.19,6.53,3.78,17.16,3.77,23.69,0,2.91-1.69,4.6-3.9,4.74-6.23v-9.84h1v9.87c-.17,2.71-2,5.2-5.24,7.06A25.22,25.22,0,0,1,61.83,705.06Z"/><path class="cls-2" d="M61.82,695.34a25.16,25.16,0,0,1-12.34-3c-3.39-1.95-5.26-4.59-5.26-7.41s1.87-5.46,5.26-7.41c6.81-3.93,17.88-3.93,24.68,0,3.4,1.95,5.26,4.59,5.26,7.41s-1.86,5.46-5.25,7.41A25.23,25.23,0,0,1,61.82,695.34Zm0-19.74A24.27,24.27,0,0,0,50,678.43c-3.07,1.77-4.76,4.1-4.76,6.55s1.69,4.78,4.76,6.55c6.53,3.77,17.15,3.77,23.69,0,3.06-1.77,4.75-4.1,4.75-6.55s-1.69-4.78-4.76-6.55A24.25,24.25,0,0,0,61.82,675.6Z"/><path class="cls-3" d="M61.16,681.94l6,3.43-1.73,1-5.95-3.43Zm-2.9,1.67L64.21,687l-1.72,1-6-3.44Z"/><path class="cls-2" d="M305.45,692.94a16.63,16.63,0,0,0-1.44-1.31l.64-.78a20.39,20.39,0,0,1,1.52,1.39Z"/><path class="cls-2" d="M281,716c-1.34-.05-2.69-.15-4-.31l.12-1c1.28.16,2.6.26,3.91.31Zm4,0-.05-1c1.31-.06,2.62-.19,3.9-.37l.14,1C287.66,715.72,286.32,715.84,285,715.91ZM273,715a37.28,37.28,0,0,1-3.88-1.06l.32-.95a35.85,35.85,0,0,0,3.77,1Zm19.88-.18-.23-1a35.56,35.56,0,0,0,3.75-1.11l.33.94A36.77,36.77,0,0,1,292.91,714.79Zm-27.49-2.38c-.67-.31-1.31-.65-1.93-1s-1.08-.65-1.58-1l.57-.82c.48.32,1,.64,1.51.95s1.22.67,1.86,1Zm35-.36-.46-.89c.39-.2.77-.41,1.15-.62a25.17,25.17,0,0,0,2.16-1.41l.59.8a23.61,23.61,0,0,1-2.25,1.47C301.26,711.63,300.86,711.84,300.46,712.05Zm-41.65-4.26a13.3,13.3,0,0,1-2.35-3.36l.9-.43a12.43,12.43,0,0,0,2.18,3.1Zm48.08-.63-.77-.64a11.5,11.5,0,0,0,2-3.23l.93.36A12.32,12.32,0,0,1,306.89,707.16Zm-51.44-6.75v-.31a9.77,9.77,0,0,1,.77-3.76l.92.38a9,9,0,0,0-.69,3.38v.28Zm53.23-.79a9.12,9.12,0,0,0-1-3.6l.89-.45a10.16,10.16,0,0,1,1.1,4Z"/><path class="cls-2" d="M259.17,693.5l-.75-.66a16.76,16.76,0,0,1,1.46-1.46l.66.74A16.18,16.18,0,0,0,259.17,693.5Z"/><path class="cls-2" d="M282.57,707.86a25.27,25.27,0,0,1-12.34-2.94c-3.22-1.86-5.08-4.35-5.24-7l0-9.91h1v9.88c.15,2.3,1.83,4.51,4.75,6.19,6.53,3.77,17.15,3.77,23.68,0,2.92-1.68,4.6-3.89,4.75-6.22V688h1v9.87c-.17,2.71-2,5.2-5.25,7.06A25.27,25.27,0,0,1,282.57,707.86Z"/><path class="cls-2" d="M282.57,698.15a25.16,25.16,0,0,1-12.34-2.95c-3.39-2-5.26-4.59-5.26-7.41s1.87-5.46,5.26-7.42c6.8-3.93,17.87-3.93,24.68,0,3.39,2,5.26,4.59,5.26,7.42s-1.87,5.45-5.26,7.41A25.16,25.16,0,0,1,282.57,698.15Zm0-19.74a24.14,24.14,0,0,0-11.84,2.83c-3.07,1.77-4.76,4.1-4.76,6.55s1.69,4.77,4.76,6.54c6.53,3.78,17.15,3.77,23.68,0,3.07-1.78,4.76-4.1,4.76-6.55s-1.69-4.78-4.76-6.55A24.14,24.14,0,0,0,282.57,678.41Z"/><polygon class="cls-3" points="285.06 685.03 282.99 686.22 284.14 688.69 279.88 688.02 277.79 689.23 287.37 690.55 285.06 685.03"/><rect class="cls-2" x="634.24" y="821.27" width="1" height="2" transform="translate(-395.32 956.41) rotate(-59.75)"/><path class="cls-2" d="M630.23,820.22l-3.39-2,.5-.86,3.4,2Zm-6.78-4-3.39-2,.5-.87,3.39,2Zm-6.79-4-3.39-2,.5-.86,3.4,2Zm-6.78-4-3.4-2,.51-.87,3.39,2Zm-6.79-4-3.39-2,.5-.86,3.4,2Z"/><rect class="cls-2" x="595.19" y="798.51" width="1" height="2" transform="translate(-395.03 911.41) rotate(-59.76)"/><path class="cls-2" d="M641.29,831.18a12.15,12.15,0,0,1-5.93-1.41c-1.68-1-2.61-2.29-2.61-3.72s.93-2.74,2.61-3.71a13.09,13.09,0,0,1,11.85,0c1.68,1,2.61,2.29,2.61,3.72s-.93,2.74-2.61,3.71A12.14,12.14,0,0,1,641.29,831.18Zm0-9.27a11,11,0,0,0-5.43,1.3,3,3,0,0,0,0,5.69,12,12,0,0,0,10.85,0,3,3,0,0,0,0-5.69A11,11,0,0,0,641.29,821.91Z"/><path class="cls-3" d="M539.4,826.81a9.32,9.32,0,0,1-4.49-1.15l-80-45.69a5.46,5.46,0,0,1-.21-9.44l9.18-5.56.51.85-9.17,5.56a4.46,4.46,0,0,0,.18,7.71l80,45.7a8.37,8.37,0,0,0,8.34-.2l98.3-56a4.46,4.46,0,0,0-.19-7.71l-6.49-3.53.48-.88,6.49,3.53a5.47,5.47,0,0,1,.22,9.45l-98.3,56A9.33,9.33,0,0,1,539.4,826.81Z"/><path class="cls-3" d="M316.21,547.23a6.64,6.64,0,0,1-3.29-.89c-.72-.41-4.28-2.82-6.87-4.58l-1.52-1a3.59,3.59,0,0,1-1.06-2.71,2.44,2.44,0,0,1,.77-2.07,2.21,2.21,0,0,1,.39-.24,3.85,3.85,0,0,1,.54-2.12c1.58-2.49,4-3.58,6.54-4.74,3-1.34,6.31-2.87,9.08-6.93a21.48,21.48,0,0,1,4.61-5.12l.61.8a20.51,20.51,0,0,0-4.4,4.88c-2.92,4.3-6.41,5.88-9.49,7.28-2.51,1.14-4.68,2.13-6.11,4.36a2.94,2.94,0,0,0-.36,1.84.51.51,0,0,1-.29.5,4.08,4.08,0,0,0-.53.29,1.62,1.62,0,0,0-.36,1.25,2.83,2.83,0,0,0,.62,1.9l1.52,1c2.43,1.65,6.12,4.15,6.8,4.54,2.19,1.24,4.56,1,7.25-.81a84.53,84.53,0,0,0,8.55-7.25.5.5,0,0,1,.85.36v.7l8.13-4.8a1.42,1.42,0,0,0,.83-1.24v-2.58a.47.47,0,0,1,.09-.28,3.13,3.13,0,0,0,.51-1.37,16.22,16.22,0,0,0,0-2.18l1,0a16.71,16.71,0,0,1,0,2.34A4,4,0,0,1,340,530v2.46a2.39,2.39,0,0,1-1.36,2.1l-8.85,5.22a.5.5,0,0,1-.75-.43v-.41a75.15,75.15,0,0,1-7.85,6.56A9.08,9.08,0,0,1,316.21,547.23Z"/><path class="cls-2" d="M331.4,523.31a9.54,9.54,0,0,1-2.49-.31,4.36,4.36,0,0,1-3.4-2.89c-.2-.77-.39-1.65-.57-2.61l1-.18c.17.94.36,1.79.55,2.54.36,1.36,1.84,1.95,2.69,2.18a9.86,9.86,0,0,0,4.88-.06l.25,1A11.48,11.48,0,0,1,331.4,523.31Z"/><path class="cls-3" d="M366.11,590.28a6.46,6.46,0,0,1-2.41-.5l-.9-.32a46.24,46.24,0,0,1-7.42-3.14c-1.13-.71-1.72-2.7-1.88-4.19a4,4,0,0,1,.41-2.67,2.76,2.76,0,0,1,.23-.78c1.19-2.68,3.4-4.09,5.74-5.6,2.72-1.74,5.79-3.71,7.92-8.1a22.24,22.24,0,0,1,3.61-5.48l.73.68a21,21,0,0,0-3.44,5.24c-2.25,4.64-5.45,6.69-8.28,8.51-2.3,1.48-4.3,2.76-5.37,5.16a2.1,2.1,0,0,0-.17.68.55.55,0,0,1-.16.3c-.18.17-.35.81-.23,1.95.17,1.57.78,3.05,1.42,3.46a44.92,44.92,0,0,0,7.22,3l.93.34c1.14.44,3.27,1.27,7-1.84,2.93-2.43,7.3-8.27,7.34-8.33a.5.5,0,0,1,.56-.17.49.49,0,0,1,.34.47v.52l6.22-4.89a1.45,1.45,0,0,0,.63-1.35c0-.42,0-1.18,0-2.27a.47.47,0,0,1,.12-.31,2.32,2.32,0,0,0,.52-1,17.26,17.26,0,0,0-.61-6.35A6.88,6.88,0,0,1,386,562a8,8,0,0,0-.3-2,1.56,1.56,0,0,0-.2-.38l.83-.55a2.34,2.34,0,0,1,.3.56,8.27,8.27,0,0,1,.37,2.26,6.61,6.61,0,0,0,.13,1.12,17.83,17.83,0,0,1,.65,6.79,3,3,0,0,1-.63,1.38c0,.8,0,1.59,0,2a2.46,2.46,0,0,1-1,2.21l-7,5.5a.5.5,0,0,1-.81-.39v-.07a55.36,55.36,0,0,1-6.6,7.32C369.41,589.68,367.6,590.28,366.11,590.28Z"/><path class="cls-2" d="M377.79,565a6.87,6.87,0,0,1-5.17-2c-.33-.38-.85-1.28-1.47-4.73l1-.18c.56,3.11,1,4,1.24,4.25,1.93,2.17,6.5,2.2,9.57.05.12-.08.56-.53,1.21-2.83l1,.27c-.7,2.5-1.22,3.12-1.59,3.38A10.18,10.18,0,0,1,377.79,565Z"/><path class="cls-2" d="M380.57,560.16c-.78,0-1.61,0-2.51-.08-8.35-.49-9.76-4.7-9.82-4.88s-.77-5.48-1.75-13.68l1-.11c1,8.18,1.73,13.52,1.74,13.57s1.34,3.66,8.9,4.11c10.52.61,12.44-2.73,12.78-3.77l1,.3C391.39,557.05,389.37,560.16,380.57,560.16Z"/><path class="cls-2" d="M393.22,353.94l-.93-.38,0-.11c.11-.28.22-.54.31-.79,1.52-4.14-.46-19.65-2.55-36.07-2.17-17.08-4.64-36.45-3.65-46.88,1.72-18,8.94-25.37,13.1-28.13l.55.83c-4,2.66-11,9.76-12.65,27.4-1,10.32,1.48,29.62,3.64,46.66,2.2,17.26,4.1,32.17,2.5,36.53l-.32.82Z"/><path class="cls-2" d="M460.24,393.1h-.55l0-1a24.87,24.87,0,0,0,4.64-.32c8.14-1.4,9.8-8.64,10.4-16.24l1,.07c-.59,7.63-2.39,15.63-11.22,17.16A25.61,25.61,0,0,1,460.24,393.1Z"/><path class="cls-2" d="M476.09,277a28.55,28.55,0,0,0-3.8-8c-6.37-8.3-21.47-15.61-31.47-20.46l-2.56-1.24v2.41c-.05.37-1.15,7.38-6.77,11.18-3.51,2.37-8,2.93-13.28,1.66-2.43-.58-3.78-2.34-3.89-5.09l1,0c.1,2.32,1.12,3.68,3.12,4.16,5,1.2,9.22.69,12.49-1.52,5.26-3.56,6.32-10.36,6.34-10.43v-3.13a.5.5,0,0,1,.24-.43.48.48,0,0,1,.48,0c1,.49,2.1,1,3.28,1.59,10.08,4.89,25.31,12.27,31.83,20.75a29.64,29.64,0,0,1,4,8.3Z"/><path class="cls-2" d="M414.49,257.53c-7-.39-11.61-5.13-14.87-15.35-.47-1.48-1-3.49-1.56-5.82l1-.23c.55,2.3,1.08,4.29,1.54,5.74,3.11,9.77,7.42,14.29,14,14.66Z"/><path class="cls-2" d="M397.66,238.07a.51.51,0,0,1-.44-.27c-.46-.84-11-20.81-4.17-29.07l.77.63c-5.68,6.85,1.93,23.27,3.86,27.14l3.41-6.1a.5.5,0,0,1,.93.25l0,1.74c3.36-1.08,18.62-6.15,24.44-10.7a.55.55,0,0,1,.41-.1.5.5,0,0,1,.34.26l2.84,5.22-.88.48-2.56-4.72c-7,5.11-24.2,10.49-24.95,10.72a.46.46,0,0,1-.44-.08.49.49,0,0,1-.21-.4v-.46l-2.91,5.2A.48.48,0,0,1,397.66,238.07Z"/><path class="cls-2" d="M424.26,762.48a12.58,12.58,0,0,1-6.18-1.48c-1.8-1-2.76-2.46-2.7-4V569.45h1V757c0,1.16.74,2.26,2.2,3.11a12.59,12.59,0,0,0,11.36,0c1.47-.85,2.25-1.95,2.2-3.09V569.41h1V757c.06,1.51-.89,2.93-2.7,4A12.56,12.56,0,0,1,424.26,762.48Z"/><path class="cls-2" d="M98.86,574.63a12.62,12.62,0,0,1-6.19-1.48c-1.8-1-2.75-2.46-2.69-4V381.58h1v187.6c0,1.17.73,2.26,2.19,3.11a12.58,12.58,0,0,0,11.37,0c1.46-.85,2.24-1.94,2.19-3.09V391.26h1V569.18c.06,1.52-.89,2.93-2.69,4A12.61,12.61,0,0,1,98.86,574.63Z"/><path class="cls-2" d="M230.87,498.49a12.56,12.56,0,0,1-6.18-1.48c-1.8-1-2.76-2.46-2.7-4V457.8h1V493c-.05,1.16.73,2.26,2.2,3.11a12.62,12.62,0,0,0,11.36,0c1.46-.85,2.24-1.95,2.2-3.09V467.47h1V493c.06,1.51-.9,2.93-2.7,4A12.56,12.56,0,0,1,230.87,498.49Z"/><path class="cls-2" d="M337.57,352.16h-.37c-1.55-.1-3.83-1.4-6.46-2.91-2.83-1.63-6-3.47-8.09-3.47h0a20.23,20.23,0,0,0-3.8.92c-1.93.58-2.64.77-3,.62-.24-.09-1.36-.76-1.94-1.11-.32,0-1.09,0-1.69.05a2,2,0,0,1-1.49-.76,1.81,1.81,0,0,1-.49-1.46c.2-.95,1.46-1.9,2.77-2.66l-.65.22a14.65,14.65,0,0,1-4.11,1,2.12,2.12,0,0,1-1.89-1,1.32,1.32,0,0,1,0-1.37,15.58,15.58,0,0,1,3.86-3,5.87,5.87,0,0,1-2.53.42c-1.13-.34-2.05-1.63-1.79-2.5.58-1.91,3.93-3.49,6.15-4.54l.86-.41c2.4-1.18,5.66-2.56,7.52-2.42,3.13.26,7.22,2.88,11.17,5.42a41.13,41.13,0,0,0,7.29,4.09,11.38,11.38,0,0,0,2.75.76l0,.45.59.09-.24.37c-.21.12-.49.29-3.45-.73A40.66,40.66,0,0,1,331,334c-3.85-2.47-7.83-5-10.71-5.26-1.28-.1-3.81.74-7,2.32l-.88.42c-1.8.85-5.16,2.43-5.61,3.91-.07.23.42,1.05,1.12,1.26s4.78-1.35,8.21-2.88a.51.51,0,0,1,.66.24.5.5,0,0,1-.22.66c-3.36,1.79-8.66,4.86-9.44,6a.35.35,0,0,0,0,.34,1.1,1.1,0,0,0,1,.51,14,14,0,0,0,3.8-.92l1.16-.38a7.41,7.41,0,0,1,3.14-.38.5.5,0,0,1,.41.44.5.5,0,0,1-.32.52c-2,.8-5,2.39-5.21,3.4a1,1,0,0,0,.27.6,1,1,0,0,0,.68.41c.78,0,1.86-.05,1.86-.05a.52.52,0,0,1,.27.07c.81.49,1.75,1,1.91,1.1a14.07,14.07,0,0,0,2.39-.64,19.81,19.81,0,0,1,4.07-1c2.33-.08,5.54,1.81,8.66,3.6,2.42,1.39,4.7,2.69,6,2.78a31.53,31.53,0,0,0,5.13-.61l.2,1A35.22,35.22,0,0,1,337.57,352.16Z"/><polygon class="cls-4" points="571.15 772.52 571.85 772.09 571.85 768.66 571.15 769.09 571.15 772.52"/><path class="cls-2" d="M571.13,773a.54.54,0,0,1-.25-.06.52.52,0,0,1-.25-.44V769.1a.5.5,0,0,1,.25-.43l33.61-19.36a.5.5,0,0,1,.75.43v3.44a.5.5,0,0,1-.25.43L571.38,773A.54.54,0,0,1,571.13,773Zm.5-3.64v2.28l32.61-18.78v-2.28Z"/><polygon class="cls-4" points="571.15 733.33 571.85 732.9 571.85 729.47 571.15 729.9 571.15 733.33"/><path class="cls-2" d="M571.13,733.84a.45.45,0,0,1-.25-.07.5.5,0,0,1-.25-.43v-3.43a.5.5,0,0,1,.25-.43l33.61-19.36a.5.5,0,0,1,.5,0,.48.48,0,0,1,.25.43V714a.5.5,0,0,1-.25.44l-33.61,19.35A.45.45,0,0,1,571.13,733.84Zm.5-3.64v2.28l32.61-18.79v-2.27Z"/><path class="cls-2" d="M356.47,356.27a23.37,23.37,0,0,1-4.38-.36,24.33,24.33,0,0,1-3.93-1.61l-.41-.19a16.19,16.19,0,0,0-3.58-.76,2.52,2.52,0,0,1-2.17-2.28L341,339.71A2.54,2.54,0,0,1,343,337a45.46,45.46,0,0,0,4.54-1c20.41-6.72,31.84-16.27,34-28.37,2.6-14.82,4.18-24.79,4.69-29.65l1,.1c-.51,4.88-2.09,14.88-4.7,29.72-2.19,12.5-13.85,22.3-34.64,29.15a45.81,45.81,0,0,1-4.68,1,1.55,1.55,0,0,0-1.26,1.66L343,351a1.52,1.52,0,0,0,1.31,1.38,16.76,16.76,0,0,1,3.86.84l.41.2a27.13,27.13,0,0,0,3.7,1.53c7.53,1.43,22.47-1.85,32.61-7.15.14-.06,5.32-1.75,7.78-9.68l.95.3c-2.62,8.47-8.12,10.23-8.35,10.3C376.57,353.25,364.72,356.27,356.47,356.27Z"/><path class="cls-2" d="M446.65,94.56a3.19,3.19,0,0,1-1.54-.46l-37-21.37-15.39,9V63.84l-11.63-6.71a6.85,6.85,0,0,1-3.14-5.44V2.56A2.5,2.5,0,0,1,379,.26a2.51,2.51,0,0,1,2.54.2l64,37a6.85,6.85,0,0,1,3.14,5.44V92a2.5,2.5,0,0,1-1.1,2.3A2,2,0,0,1,446.65,94.56Zm-38.55-23,37.51,21.66A1.28,1.28,0,0,0,447.75,92V42.87a5.91,5.91,0,0,0-2.64-4.57l-64-37a1.57,1.57,0,0,0-1.54-.2,1.57,1.57,0,0,0-.6,1.43V51.69a5.91,5.91,0,0,0,2.64,4.57l12.13,7V80Z"/><path class="cls-2" d="M455.46,129.16l-16.28-27.64L417.33,88.91a6.86,6.86,0,0,1-3.14-5.44V76h1v7.51A5.91,5.91,0,0,0,417.83,88l22.08,12.75.07.11,14.48,24.59v-16.3l12.63,7.29a1.27,1.27,0,0,0,2.13-1.23V66.12a5.9,5.9,0,0,0-2.63-4.57L448,50.81l.5-.86,18.59,10.73a6.84,6.84,0,0,1,3.13,5.44v49.13a2.24,2.24,0,0,1-3.63,2.1l-11.13-6.43Z"/><path class="cls-3" d="M402,45a1.18,1.18,0,0,1-.63-.19l-4.8-2.76a2.78,2.78,0,0,1-1.21-2.27V34.61A1.33,1.33,0,0,1,396,33.4a1.1,1.1,0,0,1,1.12.05l4.8,2.77a2.76,2.76,0,0,1,1.21,2.26v5.2a1.32,1.32,0,0,1-.59,1.2A1,1,0,0,1,402,45ZM401.9,44A.87.87,0,0,0,402,44a.55.55,0,0,0,.08-.34v-5.2a1.85,1.85,0,0,0-.71-1.4l-4.8-2.76a.25.25,0,0,0-.13,0,.52.52,0,0,0-.08.34V39.8a1.8,1.8,0,0,0,.71,1.4Z"/><path class="cls-3" d="M416.8,53.54a1.3,1.3,0,0,1-.64-.18l-4.79-2.77a2.76,2.76,0,0,1-1.21-2.26v-5.2a1.31,1.31,0,0,1,.58-1.2,1.1,1.1,0,0,1,1.13,0l4.79,2.76A2.78,2.78,0,0,1,417.87,47V52.2a1.32,1.32,0,0,1-.58,1.21A1,1,0,0,1,416.8,53.54Zm-5.56-10.75s-.08.11-.08.34v5.2a1.82,1.82,0,0,0,.71,1.4l4.79,2.76a.26.26,0,0,0,.14,0,.57.57,0,0,0,.07-.34V47a1.8,1.8,0,0,0-.71-1.4l-4.79-2.77A.35.35,0,0,0,411.24,42.79Z"/><path class="cls-3" d="M432.9,62.84a1.29,1.29,0,0,1-.63-.18l-4.79-2.77a2.76,2.76,0,0,1-1.21-2.26v-5.2a1.31,1.31,0,0,1,.58-1.2,1.1,1.1,0,0,1,1.13.05L432.77,54A2.78,2.78,0,0,1,434,56.31V61.5a1.32,1.32,0,0,1-.58,1.21A1,1,0,0,1,432.9,62.84Zm-5.55-10.75s-.08.11-.08.34v5.2A1.82,1.82,0,0,0,428,59l4.79,2.76a.26.26,0,0,0,.14.05.57.57,0,0,0,.07-.34V56.31a1.8,1.8,0,0,0-.71-1.4l-4.79-2.77A.35.35,0,0,0,427.35,52.09Z"/><path class="cls-3" d="M190.46,310.78a6.93,6.93,0,0,1-3.42-.87L171.55,301a2.79,2.79,0,0,1-1.62-2.27,2.15,2.15,0,0,1,1.22-1.84l25.46-14.7a6.72,6.72,0,0,1,6.11.23l15.49,8.95a2.79,2.79,0,0,1,1.63,2.27,2.15,2.15,0,0,1-1.22,1.84l-25.47,14.7A5.49,5.49,0,0,1,190.46,310.78Zm8.83-28.24a4.45,4.45,0,0,0-2.18.49l-25.46,14.7a1.22,1.22,0,0,0-.72,1,1.88,1.88,0,0,0,1.12,1.4l15.49,8.95a5.78,5.78,0,0,0,5.11.23l25.47-14.7a1.22,1.22,0,0,0,.72-1c0-.47-.42-1-1.13-1.4l-15.49-8.95A6,6,0,0,0,199.29,282.54Z"/><path class="cls-2" d="M387.81,416.2a2.73,2.73,0,0,1-.68-.1,1.76,1.76,0,0,1-1.22-.94c-.36-.91.16-2.4.83-3.75q-.21.25-.42.54a14.58,14.58,0,0,1-2.89,3.09,2.11,2.11,0,0,1-2.14.18,1.33,1.33,0,0,1-.74-1.15,15.55,15.55,0,0,1,1.57-4.6,5.9,5.9,0,0,1-1.87,1.74c-1.14.34-2.61-.22-2.88-1.09-.58-1.91,1.34-5.08,2.6-7.18.19-.3.35-.58.49-.82,1.34-2.31,3.29-5.27,4.93-6.18,2.74-1.52,7.6-1.6,12.3-1.68a40.42,40.42,0,0,0,8.33-.63,52.77,52.77,0,0,0,7.65-3.11l.44.89a51.66,51.66,0,0,1-7.84,3.19,40.82,40.82,0,0,1-8.57.66c-4.57.08-9.3.16-11.83,1.56-1.1.61-2.76,2.73-4.54,5.8-.14.25-.31.53-.5.84-1,1.71-2.95,4.89-2.5,6.37a1.62,1.62,0,0,0,1.63.42c.65-.21,3.23-3.77,5.24-6.94a.5.5,0,0,1,.86.51c-1.81,3.34-4.51,8.84-4.51,10.25a.34.34,0,0,0,.21.27,1.12,1.12,0,0,0,1.12-.13,14,14,0,0,0,2.65-2.87c.26-.35.52-.67.76-1a7.14,7.14,0,0,1,2.4-2.05.48.48,0,0,1,.58.14.51.51,0,0,1,0,.6c-1.25,1.8-2.84,4.76-2.46,5.72a.93.93,0,0,0,.56.35,1,1,0,0,0,.79,0c.63-.46,1.52-1.07,1.52-1.07a.43.43,0,0,1,.26-.09c.95,0,2-.1,2.2-.14a19.15,19.15,0,0,0,1.64-1.86,19.29,19.29,0,0,1,2.86-3.05c1.91-1.31,5.62-1.56,9.2-1.8,2.78-.19,5.41-.36,6.56-1a74.3,74.3,0,0,0,6.35-5.35l.67.74a80.14,80.14,0,0,1-6.52,5.47c-1.35.78-4,.95-7,1.16-3.29.22-7,.47-8.71,1.63a19.8,19.8,0,0,0-2.65,2.86c-1.29,1.55-1.77,2.1-2.19,2.2-.25.06-1.55.12-2.23.15l-1.37,1A1.65,1.65,0,0,1,387.81,416.2Z"/><path class="cls-2" d="M420.26,403.9a.48.48,0,0,1-.44-.28l-7.7-15.46a.49.49,0,0,1,.21-.66c1.43-.8,3.89-2.35,4.36-3.15a5.22,5.22,0,0,0,.45-1.34,5.17,5.17,0,0,1,2.2-3.61C446.87,364,452,346.81,452.76,343.53c1.13-4.93,4.1-31.12,3.28-46.22-.27-5.12,0-14.52,5-20a12.32,12.32,0,0,1,9-4h.31c10.5,0,16,21.49,16.31,28.41,1.3,28.51-1.72,40.79-6.71,61.13-.18.74-.35,1.47-.52,2.22-2.22,9.9-4.51,20.14-42,35.52a19.54,19.54,0,0,1-11,.72l-5.93,2.54A.45.45,0,0,1,420.26,403.9Zm-7-15.77,7.27,14.63,5.65-2.42a.45.45,0,0,1,.32,0,18.87,18.87,0,0,0,10.57-.64c37-15.18,39.22-25.16,41.39-34.81.17-.75.33-1.49.52-2.24,5-20.25,8-32.48,6.69-60.84-.3-6.53-5.71-27.86-15.59-27.46a11.42,11.42,0,0,0-8.3,3.69c-4.72,5.18-5,14.28-4.71,19.25.82,15.18-2.16,41.53-3.3,46.49-.77,3.35-6,20.86-33.91,36.53-1.12.63-1.42,1.82-1.72,3a5.86,5.86,0,0,1-.56,1.61C416.9,386,414.29,387.52,413.23,388.13Z"/><path class="cls-1" d="M523.2,686.4c1,2.45,3.11,4.79,6.42,6.7,9.38,5.41,24.59,5.41,34,0,3.47-2,5.66-4.48,6.55-7.06l.56-1.17c0,8-11,14.48-24.49,14.48s-24.49-6.48-24.49-14.48a8.68,8.68,0,0,1,.11-1.35C522.28,684.47,522.73,685.43,523.2,686.4Z"/><path class="cls-2" d="M539.28,735.07A.43.43,0,0,1,539,735l-70.14-40.77a.5.5,0,0,1,0-.87L514.71,667l.5.87-45.07,25.9L539.28,734l89.84-51.89-46.61-27,.5-.86,47.36,27.4a.5.5,0,0,1,0,.87L539.53,735A.47.47,0,0,1,539.28,735.07Z"/><path class="cls-2" d="M539.28,819.51a.51.51,0,0,1-.25-.06.5.5,0,0,1-.25-.44V734.57h1v83.58l89.84-51.9V682.1h1v84.44a.48.48,0,0,1-.25.43l-90.84,52.48A.57.57,0,0,1,539.28,819.51Z"/><path class="cls-2" d="M539,819.44l-70.14-40.77a.5.5,0,0,1-.25-.44V693.79h1V778l69.89,40.63Z"/><rect class="cls-2" x="532.27" y="788.25" width="104.86" height="1" transform="matrix(0.87, -0.5, 0.5, 0.87, -316.01, 397.94)"/><rect class="cls-2" x="532.17" y="749.19" width="105.05" height="1" transform="translate(-297.27 394.68) rotate(-30.12)"/><path class="cls-2" d="M424.23,574.77a.51.51,0,0,1-.25-.06.5.5,0,0,1-.25-.44V559.38A.5.5,0,0,1,424,559L468.89,533l.5.87-44.66,25.78v13.74l55.63-32.12.5.86-56.38,32.56A.57.57,0,0,1,424.23,574.77Z"/><path class="cls-2" d="M424,574.71,68.5,369.47a.48.48,0,0,1-.25-.43V354.15a.48.48,0,0,1,.25-.43.5.5,0,0,1,.5,0L424.48,559l-.5.87L69.25,355v13.73L424.48,573.84Z"/><rect class="cls-2" x="62.04" y="328.66" width="99.72" height="1" transform="translate(-150.06 100.59) rotate(-30.12)"/><path class="cls-2" d="M356.47,333.56,230.83,261.15l-23.55,13.6-.5-.87,23.8-13.74a.5.5,0,0,1,.5,0L357,332.69Z"/><rect class="cls-2" x="405.48" y="336.08" width="1" height="51.24" transform="translate(-110.25 532.44) rotate(-60)"/><rect class="cls-2" x="507.1" y="500.99" width="34.8" height="1" transform="translate(-180.46 329.38) rotate(-29.99)"/><rect class="cls-2" x="547.21" y="518.77" width="1" height="19.63"/><rect class="cls-2" x="547.21" y="555.73" width="1" height="29.64"/><rect class="cls-2" x="563.97" y="575.84" width="1" height="21.12"/><rect class="cls-2" x="563.97" y="540.58" width="1" height="17.02"/><path class="cls-2" d="M546.61,697.65c-6.25,0-12.49-1.37-17.24-4.12-3.29-1.9-5.59-4.31-6.63-6.95-17.57-36.41-20.26-62.21-20.28-62.47l1-.09c0,.25,2.7,25.89,20.19,62.16a13.8,13.8,0,0,0,6.22,6.49c9.23,5.32,24.24,5.32,33.47,0,3.25-1.88,5.44-4.23,6.33-6.8,17.37-36.17,20-62.66,20.06-62.92l1,.09c0,.27-2.71,26.94-20.13,63.21-1,2.75-3.3,5.28-6.76,7.28C559.09,696.28,552.84,697.65,546.61,697.65Z"/><path class="cls-2" d="M569.24,600.57a61.61,61.61,0,0,0-8.18-2.25l.2-1a62.05,62.05,0,0,1,8.31,2.29Z"/><path class="cls-2" d="M522.94,600.94l-.35-.93a64.11,64.11,0,0,1,14.8-3.55l.13,1A63.62,63.62,0,0,0,522.94,600.94Z"/><path class="cls-2" d="M546.61,647.33c-11.29,0-22.56-2.48-31.15-7.44-7.47-4.31-12.09-10-13-15.94-.76-4.87.91-9.74,4.83-14.08l.74.67c-3.71,4.11-5.3,8.69-4.58,13.26.89,5.66,5.34,11.07,12.54,15.23,16.9,9.75,44.39,9.76,61.29,0,6.62-3.83,10.82-8.65,12.12-13.95a15,15,0,0,0-2.14-11.85l-.69-1,.81-.59.71,1a16,16,0,0,1,2.28,12.65c-1.37,5.57-5.72,10.61-12.59,14.57C569.16,644.85,557.88,647.33,546.61,647.33Z"/><path class="cls-2" d="M508,633.36l-.78-.63,1.89-2.34a29.33,29.33,0,0,1,8.53-7.1c16-9.21,41.93-9.21,57.89,0a29.33,29.33,0,0,1,8.53,7.1l1.65,2.37-.82.57L583.28,631a28.28,28.28,0,0,0-8.23-6.83c-15.68-9.06-41.21-9.06-56.89,0a28,28,0,0,0-8.24,6.85Z"/><path class="cls-2" d="M495.67,552.5a15.43,15.43,0,0,1-4.59-.63c-5.75-1.69-12.24-3.6-10.86-10.91l-7.9-5.22-2.46-1.62c-4-2.66-8.72-5.76-13.67-8.89-8.62-5.45-11.19-4.33-13.93-3.14l-.58.25a.51.51,0,0,1-.55-.11.49.49,0,0,1-.1-.54c1.94-4.66,4.06-8.18,13.74-11.07,2.12-.63,4.29-1.34,6.38-2,7.42-2.43,15.12-4.93,23-4.85,8.62.1,18.15,2.57,29.16,7.56,3.08,1.4,5.57,3.74,8.21,6.21a47.46,47.46,0,0,0,7.32,6c10,6.24,5.36,16.25,2,23.56l-.23.5a.49.49,0,0,1-.35.28.51.51,0,0,1-.43-.1c-4-3.37-9.89-3.32-15.59-3.27a61.12,61.12,0,0,1-8-.29c.12.92.24,2,.35,3.11.15,1.36.3,2.76.44,3.75a.48.48,0,0,1-.1.38.47.47,0,0,1-.34.19l-3.77.37C499.67,552.28,497.5,552.5,495.67,552.5ZM446,520.11c2.31,0,5.5,1,10.71,4.28,4.95,3.13,9.66,6.23,13.68,8.89l2.46,1.63c2.68,1.77,5.39,3.57,8.18,5.4a.51.51,0,0,1,.22.52c-1.35,6.2,3.33,8.09,10.09,10.08,3,.89,5.43.65,11.24.07l3.25-.32c-.12-.94-.25-2.12-.37-3.27-.15-1.34-.29-2.74-.44-3.72a.52.52,0,0,1,.14-.43.54.54,0,0,1,.43-.14,55.7,55.7,0,0,0,8.54.37c5.67-.05,11.5-.1,15.74,3.1,3.4-7.35,7.59-16.47-1.63-22.22a48.75,48.75,0,0,1-7.47-6.1c-2.58-2.42-5-4.7-7.95-6-10.87-4.93-20.28-7.37-28.75-7.47-7.72-.08-15.29,2.4-22.63,4.8-2.1.69-4.27,1.4-6.4,2-8.95,2.67-11.15,6-12.62,9.35A8.67,8.67,0,0,1,446,520.11Z"/><path class="cls-2" d="M534.86,575h-.11c-10.37-2.4-21-5.54-21.45-10.58-.58-6.91,5.57-9.07,10.51-10.81,2.44-.86,4.74-1.67,5.49-2.87,2.05-3.25,5.36-5,8.56-6.73.76-.41,1.52-.82,2.28-1.25a72.41,72.41,0,0,0,12.51-9c1-.83,3.84-3.37,7.23-3.56a.49.49,0,0,1,.43.79c-2.65,3.66-4.17,7.81-5.64,11.82-.84,2.3-1.72,4.69-2.79,6.91-3.29,6.82-6.82,10.06-10.22,13.2l-1,.88c-.06.05-5.58,5.5-5.34,10.68a.51.51,0,0,1-.18.41A.52.52,0,0,1,534.86,575Zm24-43.65a13.43,13.43,0,0,0-5.54,3.16,72.91,72.91,0,0,1-12.68,9.11c-.76.43-1.53.85-2.3,1.26-3.23,1.73-6.28,3.36-8.18,6.38-.94,1.49-3.29,2.32-6,3.28-4.85,1.71-10.36,3.65-9.85,9.79.4,4.82,14.13,8.16,20.07,9.54.17-5.5,5.6-10.75,5.66-10.8l1-.89a38.4,38.4,0,0,0,10-12.9,72.36,72.36,0,0,0,2.75-6.82A51.66,51.66,0,0,1,558.85,531.34Z"/><path class="cls-2" d="M573.69,588.38h-.08a.48.48,0,0,1-.38-.29,6.65,6.65,0,0,1,0-4c.07-.34.14-.68.2-1a25,25,0,0,1,2.47-6.81c.59-1.23,1.2-2.5,1.69-3.83a41.45,41.45,0,0,1-9.15,2.88c-4.05.94-7.88,1.83-10.88,4.31a.5.5,0,0,1-.81-.3c-.33-2-1.18-9,1.82-14.23A48.42,48.42,0,0,1,574.69,548c3-1.86,6.64-2.14,10.14-2.41a31.25,31.25,0,0,0,7.4-1.18,48.33,48.33,0,0,0,8-3.85,43.64,43.64,0,0,1,9.2-4.24,31.76,31.76,0,0,1,9.37-.75c1.53,0,3.11.06,4.63,0a.5.5,0,0,1,.48.29.49.49,0,0,1-.08.55c-2.7,2.91-4.8,7-6.65,10.68-.5,1-1,1.95-1.48,2.87s-.86,1.64-1.25,2.41c-1.74,3.45-3.12,6.17-6.23,8.49a36.8,36.8,0,0,0-8,8.8,43.67,43.67,0,0,1-4.83,5.94c-3.07,3-6.87,4.57-10.55,6.07-4,1.65-7.84,3.21-10.78,6.54A.5.5,0,0,1,573.69,588.38Zm4.8-17.43a.51.51,0,0,1,.31.11.48.48,0,0,1,.16.54,36.63,36.63,0,0,1-2.13,5.14,24.22,24.22,0,0,0-2.4,6.54c0,.35-.12.7-.2,1.05a9.55,9.55,0,0,0-.28,2.54c3-3,6.82-4.61,10.51-6.12s7.3-3,10.23-5.86a43.63,43.63,0,0,0,4.72-5.82,37.72,37.72,0,0,1,8.22-9c2.93-2.18,4.26-4.81,5.94-8.14.39-.78.8-1.59,1.26-2.43s1-1.87,1.47-2.86a55.08,55.08,0,0,1,6-10c-1.18,0-2.38,0-3.54,0a31,31,0,0,0-9.08.71,43,43,0,0,0-9,4.15,49.63,49.63,0,0,1-8.18,3.93,31.73,31.73,0,0,1-7.64,1.22c-3.54.28-6.88.54-9.7,2.27a47.45,47.45,0,0,0-15.75,16.76c-2.1,3.65-2.34,8.82-1.83,12.73,3.06-2.23,6.73-3.08,10.61-4a36.88,36.88,0,0,0,10-3.37A.45.45,0,0,1,578.49,571Z"/><path class="cls-2" d="M544.56,638.56l-1,0c.06-3.45.05-10.85.05-14,0-5.67,0-11,.3-16l1,.06c-.31,5-.3,10.31-.3,16C544.61,627.69,544.62,635.1,544.56,638.56Zm12.17-.31-1-.07c1.17-19.22,7.7-65.89,42.77-83.93l.46.89C564.36,573,557.9,619.19,556.73,638.25Zm-21-1.88h-1c.07-18.91-3.27-39-9.94-59.6-.58-1.78-1.19-3.54-1.83-5.22l.93-.36c.65,1.7,1.27,3.48,1.85,5.27C532.41,597.2,535.77,617.36,535.7,636.37Zm4.2-.45h-1c.08-5-.12-11-.62-18.45a103.11,103.11,0,0,1-.29-16.35c.06-.64.11-1.28.15-1.9l1,.07c0,.63-.1,1.27-.16,1.92a103.29,103.29,0,0,0,.29,16.17C539.78,624.85,540,630.91,539.9,635.92Zm7.78-2.61c-.25-6.79-.22-15.32.08-25.36l1,0c-.3,10-.33,18.52-.08,25.3ZM562,632.06l-1-.09c1.11-12.9,4.25-22.29,9.33-27.88l.74.67C566.13,610.19,563.08,619.37,562,632.06ZM526.11,632c-.27-6.59-.65-8.31-2.68-12.25a39.84,39.84,0,0,0-3.84-5.94l.79-.61a41.1,41.1,0,0,1,3.94,6.09c2.22,4.31,2.53,6.38,2.79,12.66Zm5.89-.37q-.11-1.93-.18-3.9c-.26-6-.52-9-2.15-14.55s-4.82-10.61-8-12.64l.54-.84c3.4,2.19,6.7,7.37,8.4,13.2,1.65,5.63,1.93,8.83,2.19,14.79,0,1.3.11,2.6.18,3.89ZM507.53,598.1c-3.17-5.09-7.51-12.06-11-14.36l.55-.84c3.71,2.42,8.12,9.5,11.34,14.67Zm30.79-4.55a47.78,47.78,0,0,0-4.43-19l.91-.42a48.87,48.87,0,0,1,4.52,19.36ZM549.78,585l-1,0c.61-11,1.44-23.14,2.47-36.18l1,.08C551.22,561.88,550.39,574.05,549.78,585Zm-33.53-27.46a70.29,70.29,0,0,0-6.51-9.26C504.62,542.15,498,538.65,491,535l-.3-.16c-1.35-.72-2.71-1.44-4.07-2.19-8.58-4.74-18.44-8.56-28.62-12.38l.35-.93c10.22,3.83,20.11,7.67,28.75,12.43,1.36.75,2.71,1.47,4.06,2.19l.3.16c7.07,3.75,13.76,7.29,19,13.57a71.65,71.65,0,0,1,6.61,9.39Zm37.3-23.34-1-.13c2.92-22.32,13.45-38,21.14-49.48,4.43-6.62,7.93-11.84,8.81-16.33l1,.19c-.91,4.68-4.47,10-9,16.69C566.9,496.52,556.45,512.11,553.55,534.2Z"/><path class="cls-2" d="M544.05,608.73A9.57,9.57,0,0,1,540,608a.5.5,0,0,1-.27-.35.52.52,0,0,1,.12-.43c1.65-1.86,2.75-5,3.63-7.57.17-.47.32-.9.46-1.3a23.87,23.87,0,0,1-2.43.47,11.87,11.87,0,0,0-4,1,.5.5,0,0,1-.75-.49c.33-2.88,2-8.52,4.62-11.47l.09-.08c2.84-2,8.31-4,15.16-3.76l.76,0c1.9.09,3.86.18,5.32-1.28a.52.52,0,0,1,.54-.11.52.52,0,0,1,.32.46,52.45,52.45,0,0,1-1.5,12.19c-.74,3.09-3.27,8.18-5.71,10.55a.6.6,0,0,1-.13.09A31.52,31.52,0,0,1,544.05,608.73Zm-3-1.35c3,1,10.07-.06,14.73-2.21a25.82,25.82,0,0,0,5.37-10,53.57,53.57,0,0,0,1.46-10.91c-1.62,1-3.51,1-5.22.88l-.74,0c-6.56-.21-11.79,1.7-14.51,3.55-2.23,2.58-3.71,7.29-4.2,10a17.2,17.2,0,0,1,3.43-.76,12.47,12.47,0,0,0,3.22-.77.52.52,0,0,1,.57.08.51.51,0,0,1,.11.56c-.25.61-.52,1.38-.83,2.28A28,28,0,0,1,541,607.38Z"/><path class="cls-2" d="M489.76,618.23a.51.51,0,0,1-.48-.35c-.7-2.23-1.64-6.47,0-9.76,1.08-2.25,4.17-7.62,9.35-9a45.46,45.46,0,0,1,21.42-.67,4.91,4.91,0,0,1,3.48,3.16l.15.43a18,18,0,0,1,1.35,5.36,6.81,6.81,0,0,1-4.09,6.17,16.19,16.19,0,0,1-7.69,1,5.18,5.18,0,0,1-3-2,4.47,4.47,0,0,0-2.39-1.74,7.51,7.51,0,0,0-3.85,1.15c-1.72.84-3.5,1.71-5.2.84-.64-.33-5,.76-7.38,2.73-.66.54-1.39,1.35-1.16,2.15a.51.51,0,0,1-.34.62Zm21.32-19.77a47.66,47.66,0,0,0-12.24,1.62c-3.31.89-6.57,4.06-8.7,8.47-1.09,2.25-.86,5-.4,7.18a5.51,5.51,0,0,1,1-1.06c2.27-1.87,7.18-3.52,8.47-2.85s2.74-.08,4.31-.85a8.05,8.05,0,0,1,4.41-1.24,5.26,5.26,0,0,1,3,2,4.43,4.43,0,0,0,2.38,1.74,15.07,15.07,0,0,0,7.2-.9,5.81,5.81,0,0,0,3.45-5.19,16.92,16.92,0,0,0-1.29-5.06l-.15-.43a3.93,3.93,0,0,0-2.77-2.53A38.47,38.47,0,0,0,511.08,598.46Z"/><path class="cls-3" d="M563.1,541.08a.5.5,0,0,1-.48-.62c1.86-7.47.39-17.57-.8-25.69-.33-2.31-.63-4.36-.82-6.14a47.38,47.38,0,0,1-7.19,6c-3.65,2.69-7.42,5.46-9.39,8.6a.5.5,0,0,1-.47.23.49.49,0,0,1-.42-.32c-3.07-8-6.31-25.2-3.54-36.46a.36.36,0,0,1,0-.11c4.78-9,16.44-21.82,34.83-30.67.67-.33,1.36-.65,2-1,5.39-2.49,11-5.08,13-11.43a.51.51,0,0,1,.43-.35.53.53,0,0,1,.49.26,157.8,157.8,0,0,1,12.86,34.43c2.27,9.14,2.5,26.28-.59,35.54a.51.51,0,0,1-.07.15c-10.59,13.8-30.35,27.45-39.9,27.55Zm-1.72-34.21.13,0a.49.49,0,0,1,.36.44c.17,2,.53,4.46.94,7.3,1.17,8,2.61,17.84.93,25.42,9.37-.7,28.4-14,38.42-27.07,3-9.12,2.77-25.92.54-34.89a158,158,0,0,0-12.25-33.21c-2.42,6-8.09,8.63-13.12,11l-2,1c-18.13,8.73-29.62,21.3-34.35,30.18-2.59,10.65.28,26.66,3.19,34.9,2.16-3,5.68-5.54,9.08-8,3.13-2.31,6.09-4.48,7.76-6.75A.52.52,0,0,1,561.38,506.87Z"/><path class="cls-5" d="M520.05,583.93c-7.16-1-13.65,1.67-19.93,3.92-5.6-1.61-12.09-3.42-17.59-5.36-12.67-4.48-16.69-14.27-25.9-19.13,8.39-1.07,13.19,3.72,19.84,4.66,4.56.65,8.48-3.18,13-2.83s8.5,2.82,12.37,5.27c4.66,3,6.78,7,11.94,8.94C515.24,580,518.47,581.3,520.05,583.93Z"/><path class="cls-5" d="M595,613.6c-1.65-1.2-2-2-4.35-1.66-1.67.21-3.24,1-4.92,1.15a44.18,44.18,0,0,1-9.62-.3c-2.14-.31-2.59-.6-4.55-3.27-1-1.36-2.27-2.67-2.67-4.31a8.59,8.59,0,0,1,.56-4.43,2.63,2.63,0,0,1,1.3-1.75,33,33,0,0,1,6.12,1.63c-1-3.17-4.2-6.59-3.34-8,.54-.88,2.23-1.13,3.27-1.26a21.84,21.84,0,0,1,7.39-.06c1.18.27,1.9,1.5,2.74,2.36a19.93,19.93,0,0,1,3.35,3.88,15.21,15.21,0,0,1,1.4,4.58c.27,1.43.09,2.91.29,4.34a25.66,25.66,0,0,0,.7,2.71A20.61,20.61,0,0,0,595,613.6Z"/><path class="cls-2" d="M416.63,258.45a2.13,2.13,0,0,1-.72-.12c-.25-.13-5-2.6-6.52-3.66a3.55,3.55,0,0,1-1-4.67,2.23,2.23,0,0,1,2.94-1.12l5.13,2a4.76,4.76,0,0,1,2.49,2.69,9.44,9.44,0,0,0,8.43-1.33c3.47-2.45,5.47-7.05,5.49-12.62h1c0,5.9-2.18,10.8-5.92,13.43a10.39,10.39,0,0,1-9.57,1.39.5.5,0,0,1-.31-.34,3.78,3.78,0,0,0-2-2.29l-5.14-2a1.31,1.31,0,0,0-1.69.69,2.55,2.55,0,0,0,.69,3.36c1.45,1,6.31,3.54,6.35,3.57a1.67,1.67,0,0,0,1.21-.22,1.06,1.06,0,0,0,.55-.61.54.54,0,0,1,.24-.35.49.49,0,0,1,.41-.05c3,1,7.18,0,10.37-2.42,2.39-1.8,6.34-6,6-14l1,0c.35,8.4-3.86,12.88-6.4,14.81-3.35,2.54-7.54,3.57-10.84,2.7a2.22,2.22,0,0,1-.84.79A2.83,2.83,0,0,1,416.63,258.45Z"/><path class="cls-2" d="M436.29,239.34a9.09,9.09,0,0,1-2-.16c-1.76-.54-2.76-2.55-2.61-5.24.25-4.46,3.79-9.71,7.9-11.72,2.53-1.23,4.79-1.12,6,.3a17,17,0,0,1,1.49,2.73l-.91.41a16.93,16.93,0,0,0-1.33-2.48c-.91-1.05-2.77-1.07-4.84-.06A14.3,14.3,0,0,0,432.64,234c-.13,2.2.6,3.82,1.9,4.22a20.88,20.88,0,0,0,4,.05l.06,1C438.37,239.28,437.33,239.34,436.29,239.34Z"/><path class="cls-3" d="M437.22,218.78c3.36-1.32,6.38-.58,8.14,1.62l-.07.1a3.83,3.83,0,0,0-2.69-1.23,7.31,7.31,0,0,0-3.63.89c-4.64,2.35-8.66,8.48-9,13.67-.13,2.38.54,4.18,1.82,5.13-2.12-1-3.52-3.3-3.64-6.4A15.24,15.24,0,0,1,437.22,218.78Z"/><path class="cls-2" d="M434.18,240.22H434c-3-.16-4.67-2.62-4.46-6.41.3-5.35,4.44-11.67,9.23-14.08a7.59,7.59,0,0,1,3.87-.95c2.95.16,4.67,2.85,4.48,7l-1,0c.16-3.6-1.16-5.83-3.53-6a6.7,6.7,0,0,0-3.37.84c-4.5,2.27-8.4,8.22-8.68,13.25-.18,3.22,1.14,5.22,3.52,5.35a9.13,9.13,0,0,0,3.51-.86l.41.91A10.81,10.81,0,0,1,434.18,240.22Z"/><path class="cls-3" d="M438.85,239.34a5.22,5.22,0,0,0,2.62-.65A13.07,13.07,0,0,0,448,228.8c.14-2.52-1-4.15-2.89-4.25a5.2,5.2,0,0,0-2.62.64,13.1,13.1,0,0,0-6.48,9.89C435.82,237.6,436.93,239.23,438.85,239.34Z"/><path class="cls-3" d="M392.72,203.63c.79-10.52,13.35-16,24-10.82,9.49,4.63,18,15.44,21.4,26.29a.62.62,0,0,1-.31.55,1.84,1.84,0,0,1-1.66.12.64.64,0,0,1-.35-.36c-3.27-10.14-11.24-20.2-20.09-24.51a17.22,17.22,0,0,0-8.35-2c-3.91.27-10.75,2.57-12.24,8C393.91,201.89,394,202.27,392.72,203.63Z"/><path class="cls-2" d="M444.13,219.33l-1-.14c.71-4.81,1.08-12.06-3.82-19.45a11.4,11.4,0,0,0-10.49-5.28.5.5,0,0,1-.42-.14c-.09-.09-9.14-8.64-25.93-.2-4.11,2.07-11,10.42-11.24,14.63a45.84,45.84,0,0,0,.51,7.91l-1,.14a47,47,0,0,1-.52-8.12c.29-4.56,7.38-13.23,11.8-15.45,16.15-8.12,25.51-1,26.89.22a12.61,12.61,0,0,1,11.23,5.74C445.25,206.87,444.86,214.36,444.13,219.33Z"/><rect class="cls-2" x="436.35" y="239.32" width="1" height="7.23" transform="translate(-46.89 117.04) rotate(-14.49)"/><path class="cls-1" d="M464.52,489c-12.72,7.35-33.35,7.35-46.06,0-4.72-2.72-7.69-6.07-8.9-9.59,1,9.46,15,17,31.93,17s30.88-7.52,31.93-17C472.2,482.89,469.24,486.25,464.52,489Z"/><path class="cls-2" d="M441.48,495c-8.43,0-16.86-1.85-23.27-5.55-5.74-3.31-9.19-7.73-9.72-12.45-.46-4.11,1.25-8.11,5-11.56l.68.73c-3.47,3.23-5.08,6.94-4.66,10.72.5,4.39,3.77,8.54,9.23,11.69,12.56,7.25,33,7.25,45.56,0,5.92-3.42,9.21-7.93,9.28-12.71s-3-9.13-8.54-12.57l.53-.85c5.88,3.63,9.09,8.4,9,13.43s-3.55,10-9.78,13.57C458.35,493.11,449.92,495,441.48,495Z"/><path class="cls-2" d="M441.46,453c-7.28,0-14.57-1.6-20.12-4.8s-8.48-7.39-8.48-11.91,3-8.75,8.48-11.9c11.1-6.41,29.15-6.41,40.25,0,5.47,3.15,8.48,7.38,8.48,11.9s-3,8.75-8.48,11.91S448.75,453,441.46,453Zm0-32.43c-7.11,0-14.22,1.56-19.63,4.68-5.14,3-8,6.89-8,11s2.84,8.07,8,11c10.82,6.25,28.43,6.25,39.25,0,5.14-3,8-6.89,8-11s-2.84-8.07-8-11C455.68,422.16,448.57,420.6,441.47,420.6Z"/><path class="cls-2" d="M441.46,449.93a33.31,33.31,0,0,1-16.31-3.9c-4.46-2.57-6.91-6-6.91-9.71s2.45-7.14,6.91-9.71c9-5.19,23.64-5.19,32.63,0,4.46,2.57,6.91,6,6.91,9.71s-2.45,7.14-6.91,9.71A33.35,33.35,0,0,1,441.46,449.93Zm0-26.23a32.33,32.33,0,0,0-15.82,3.78c-4.13,2.38-6.41,5.52-6.41,8.84s2.28,6.46,6.41,8.85c8.72,5,22.91,5,31.63,0,4.13-2.38,6.41-5.52,6.41-8.84s-2.28-6.46-6.41-8.84A32.31,32.31,0,0,0,441.47,423.7Z"/><path class="cls-2" d="M441.49,485.25a26.52,26.52,0,0,1-13-3.1,11.13,11.13,0,0,1-5-5.27l.93-.37a10.17,10.17,0,0,0,4.6,4.78c6.89,4,18.09,4,25,0,2.67-1.55,4.35-3.48,4.86-5.6a.53.53,0,0,1,.11-.21c8-12.1,9.63-27.6,10-34.45a17.91,17.91,0,0,1-7.32,7.2c-11.1,6.4-29.15,6.4-40.25,0a18.25,18.25,0,0,1-7.18-6.92,80.31,80.31,0,0,0,2.43,15.59l-1,.25a83.86,83.86,0,0,1-2.57-18c0-.6,0-1.06-.07-1.34a.5.5,0,0,1,1-.13c.56,3.63,3.35,7.07,7.87,9.68,10.82,6.25,28.43,6.25,39.25,0,4.62-2.67,7.43-6.19,7.9-9.92a.5.5,0,0,1,.5-.44.52.52,0,0,1,.51.49c0,.22.42,22.33-10.22,38.54-.6,2.35-2.44,4.46-5.31,6.12A26.51,26.51,0,0,1,441.49,485.25Z"/><path class="cls-2" d="M422.16,443.26l-.71-.71a18,18,0,0,1,3.7-2.78c9-5.19,23.64-5.19,32.63,0a18,18,0,0,1,3.7,2.78l-.71.71a16.58,16.58,0,0,0-3.49-2.62c-8.72-5-22.91-5-31.63,0A16.58,16.58,0,0,0,422.16,443.26Z"/><path class="cls-3" d="M460.3,458.54a.25.25,0,0,0,.26-.25l.18-7.91a5.32,5.32,0,0,0-4.51-5.57.27.27,0,0,0-.29.23.26.26,0,0,0,.22.29,4.85,4.85,0,0,1,4.07,5.05l-.19,7.9a.26.26,0,0,0,.26.26Z"/><polygon class="cls-3" points="455.61 472.46 455.61 457.69 465.77 451.83 466.1 452.01 466.31 467.02 455.94 472.64 455.61 472.46"/><path class="cls-2" d="M429.66,474.19c-1.18-.25-2.92-.77-3.45-.93a10.17,10.17,0,0,1-5.52.57l.21-1a9.36,9.36,0,0,0,5.14-.58.47.47,0,0,1,.31,0s2.19.67,3.52.95Z"/><path class="cls-2" d="M423.79,477.08c-1.84,0-3.76-.87-6.44-2.87a13.26,13.26,0,0,1-2.31-2.68,14.38,14.38,0,0,1-1.31-10,13.86,13.86,0,0,1,4.13-7,7.25,7.25,0,0,1,6.73-1.49l3.11,1.72a.48.48,0,0,1,.19.67l-.81,1.48a.5.5,0,0,1-.66.2c-1.33-.67-2.73-.39-4.15.86a11.29,11.29,0,0,0-3.19,5.35,12,12,0,0,0,1,8.28c1.51,2.91,4.54,3.44,9.55,1.67a.49.49,0,0,1,.48.08.49.49,0,0,1,.18.44l-.22,2a.5.5,0,0,1-.39.43A36.41,36.41,0,0,1,423.79,477.08Zm-1.07-23.41a6.76,6.76,0,0,0-4.2,1.57,13,13,0,0,0-3.82,6.49,13.35,13.35,0,0,0,1.23,9.34,12.82,12.82,0,0,0,2,2.33c2.51,1.87,4.24,2.66,5.81,2.68a32.42,32.42,0,0,0,5.34-.77l.09-.88c-2.5.83-7.68,2.11-10-2.41a13,13,0,0,1-1.05-9,12.4,12.4,0,0,1,3.5-5.87,4.6,4.6,0,0,1,4.82-1.2l.35-.63-2.6-1.44A4.47,4.47,0,0,0,422.72,453.67Z"/><path class="cls-2" d="M205.48,373.26a.45.45,0,0,1-.25-.07l-57.38-33a13.93,13.93,0,0,1-6-6.87c-.94-2.6-1.69-7.28.08-9.49s5.06-.72,5.2-.66l6.59,3.76,51.76,29.79,43.08-24.88.5.87-43.33,25a.5.5,0,0,1-.5,0l-52-29.93L146.69,324s-2.71-1.18-4,.39-1,5.6.08,8.53a13,13,0,0,0,5.55,6.34l57.13,32.88L255,343.45l.51.86-49.78,28.88A.45.45,0,0,1,205.48,373.26Z"/><path class="cls-2" d="M263.24,339.83l-.51-.87,11.86-6.88v-1.32L270,328.09l.5-.87,4.89,2.82a.52.52,0,0,1,.25.44v1.89a.48.48,0,0,1-.25.43Z"/><path class="cls-2" d="M258.89,337.25l-.5-.87,11.77-6.75c-1.19-3-.26-9.64-.22-9.94l1,.14c-.29,2.05-.8,7.79.32,9.76a.51.51,0,0,1-.19.68Z"/><path class="cls-2" d="M204.43,368.36a.39.39,0,0,1-.18,0,.5.5,0,0,1-.3-.32c-.08-.28-2.16-7.09-.45-11.57l.93.35c-1.3,3.43-.15,8.58.31,10.32L253,339.45l.5.86-48.86,28A.55.55,0,0,1,204.43,368.36Z"/><path class="cls-2" d="M249.87,332.25l-.5-.87,24.73-14.31-12-6.88.5-.86,12.72,7.31a.49.49,0,0,1,0,.86Z"/><path class="cls-2" d="M204.18,368.29l-55.07-31.71c-2-1.18-3.52-3.43-4.62-6.9-1.38-4.35,1.27-6.47,1.38-6.55l.61.79-.3-.4.3.39c-.09.08-2.2,1.81-1,5.47,1,3.22,2.39,5.29,4.18,6.34,1.4.82,54.52,31.39,55.06,31.7Z"/><path class="cls-3" d="M403.72,394.84,349.44,363.5l-24.92,14.56-.51-.87,25.18-14.7a.5.5,0,0,1,.5,0L404.22,394Z"/><rect class="cls-3" x="349.35" y="424.1" width="39.64" height="1" transform="translate(-166.1 251.23) rotate(-31.05)"/><path class="cls-3" d="M352.2,435.33a.45.45,0,0,1-.25-.07l-65.47-37.81a.62.62,0,0,1-.18-.18l-38.68-66.09a.5.5,0,0,1,.07-.6.52.52,0,0,1,.61-.09l74.12,42a.53.53,0,0,1,.2.22l30,61.88a.52.52,0,0,1-.11.59A.55.55,0,0,1,352.2,435.33Zm-65.1-38.68L351,433.58,321.79,373.3l-72.37-41Z"/><rect class="cls-2" x="141.19" y="318.93" width="15.64" height="1" transform="translate(-154.71 140.56) rotate(-34.5)"/><path class="cls-2" d="M208.91,347a.57.57,0,0,1-.25-.06l-58-33.69a.48.48,0,0,1-.24-.43v-1.58a.48.48,0,0,1,.25-.43l4.07-2.35.5.86-3.82,2.21v1L208.91,346l48-27.65s4.89-3.35,4.85-7.43c0-2.59-.42-4.07-1.26-4.66l-.09-.06-.14-.07a3.94,3.94,0,0,0-2.95.2c-3.87,1.37-47.75,27.49-48.19,27.75a.52.52,0,0,1-.51,0l-58-33.52a.5.5,0,0,1,0-.87l50.45-29.09a.52.52,0,0,1,.51,0l59.2,34.63a2.63,2.63,0,0,1,.33.2c1.15.81,1.67,2.49,1.69,5.47,0,4.62-5.11,8.14-5.33,8.29L209.16,347A.54.54,0,0,1,208.91,347Zm-57-46.93,57,32.93c3.95-2.35,44.26-26.32,48.12-27.68a8.39,8.39,0,0,1,1.38-.37l-57.09-33.4Z"/><path class="cls-2" d="M209.79,343a.54.54,0,0,1-.25-.06l-55.36-31.7a.51.51,0,0,1-.21-.62c1.28-3.24.58-7.92.58-8l1-.15a19.9,19.9,0,0,1-.48,8.08l54.5,31.21a13,13,0,0,0,.12-8.7l1-.31a13.49,13.49,0,0,1-.39,9.95.44.44,0,0,1-.3.25A.36.36,0,0,1,209.79,343Z"/><path class="cls-2" d="M210,342.89l-.5-.87,45.65-26.27c.23-.15,6.12-3.94,3.21-9.54l.88-.46c3.34,6.42-3.51,10.81-3.58,10.85Z"/></g></g></svg>